# Blender 5.1.1
# www.blender.org
mtllib StreetLamp_002.mtl
o Circle
v 0.000000 0.000000 -0.120173
v -0.023445 0.000000 -0.117863
v -0.045988 0.000000 -0.111025
v -0.066764 0.000000 -0.099920
v -0.084975 0.000000 -0.084975
v -0.099920 0.000000 -0.066764
v -0.111025 0.000000 -0.045988
v -0.117863 0.000000 -0.023445
v -0.120173 0.000000 0.000000
v -0.117863 0.000000 0.023445
v -0.111025 0.000000 0.045988
v -0.099920 0.000000 0.066764
v -0.084975 0.000000 0.084975
v -0.066764 0.000000 0.099920
v -0.045988 0.000000 0.111025
v -0.023445 0.000000 0.117863
v 0.000000 0.000000 0.120173
v 0.023445 0.000000 0.117863
v 0.045988 0.000000 0.111025
v 0.066764 0.000000 0.099920
v 0.084975 0.000000 0.084975
v 0.099920 0.000000 0.066764
v 0.111025 0.000000 0.045988
v 0.117863 0.000000 0.023445
v 0.120173 0.000000 0.000000
v 0.117863 0.000000 -0.023445
v 0.111025 0.000000 -0.045988
v 0.099920 0.000000 -0.066764
v 0.084975 0.000000 -0.084975
v 0.066764 0.000000 -0.099920
v 0.045988 0.000000 -0.111025
v 0.023445 0.000000 -0.117863
v -0.000000 0.064695 -0.059532
v -0.011614 0.064695 -0.058388
v -0.022782 0.064695 -0.055000
v -0.033074 0.064695 -0.049499
v -0.042095 0.064695 -0.042095
v -0.049499 0.064695 -0.033074
v -0.055000 0.064695 -0.022782
v -0.058388 0.064695 -0.011614
v -0.059532 0.064695 -0.000000
v -0.058388 0.064695 0.011614
v -0.055000 0.064695 0.022782
v -0.049499 0.064695 0.033074
v -0.042095 0.064695 0.042095
v -0.033074 0.064695 0.049499
v -0.022782 0.064695 0.055000
v -0.011614 0.064695 0.058388
v -0.000000 0.064695 0.059532
v 0.011614 0.064695 0.058388
v 0.022782 0.064695 0.055000
v 0.033074 0.064695 0.049499
v 0.042095 0.064695 0.042095
v 0.049499 0.064695 0.033074
v 0.055000 0.064695 0.022782
v 0.058388 0.064695 0.011614
v 0.059532 0.064695 -0.000000
v 0.058388 0.064695 -0.011614
v 0.055000 0.064695 -0.022782
v 0.049499 0.064695 -0.033074
v 0.042095 0.064695 -0.042095
v 0.033074 0.064695 -0.049499
v 0.022782 0.064695 -0.055000
v 0.011614 0.064695 -0.058388
v -0.000000 0.928140 -0.059532
v -0.011614 0.928140 -0.058388
v -0.022782 0.928140 -0.055000
v -0.033074 0.928140 -0.049499
v -0.042095 0.928140 -0.042095
v -0.049499 0.928140 -0.033074
v -0.055000 0.928140 -0.022782
v -0.058388 0.928140 -0.011614
v -0.059532 0.928140 -0.000000
v -0.058388 0.928140 0.011614
v -0.055000 0.928140 0.022782
v -0.049499 0.928140 0.033074
v -0.042095 0.928140 0.042095
v -0.033074 0.928140 0.049499
v -0.022782 0.928140 0.055000
v -0.011614 0.928140 0.058388
v -0.000000 0.928140 0.059532
v 0.011614 0.928140 0.058388
v 0.022782 0.928140 0.055000
v 0.033074 0.928140 0.049499
v 0.042095 0.928140 0.042095
v 0.049499 0.928140 0.033074
v 0.055000 0.928140 0.022782
v 0.058388 0.928140 0.011614
v 0.059532 0.928140 -0.000000
v 0.058388 0.928140 -0.011614
v 0.055000 0.928140 -0.022782
v 0.049499 0.928140 -0.033074
v 0.042095 0.928140 -0.042095
v 0.033074 0.928140 -0.049499
v 0.022782 0.928140 -0.055000
v 0.011614 0.928140 -0.058388
v -0.000000 0.975613 -0.032685
v -0.006377 0.975613 -0.032057
v -0.012508 0.975613 -0.030197
v -0.018159 0.975613 -0.027177
v -0.023112 0.975613 -0.023112
v -0.027177 0.975613 -0.018159
v -0.030197 0.975613 -0.012508
v -0.032057 0.975613 -0.006377
v -0.032685 0.975613 -0.000000
v -0.032057 0.975613 0.006377
v -0.030197 0.975613 0.012508
v -0.027177 0.975613 0.018159
v -0.023112 0.975613 0.023112
v -0.018159 0.975613 0.027177
v -0.012508 0.975613 0.030197
v -0.006377 0.975613 0.032057
v -0.000000 0.975613 0.032685
v 0.006377 0.975613 0.032057
v 0.012508 0.975613 0.030197
v 0.018159 0.975613 0.027177
v 0.023112 0.975613 0.023112
v 0.027177 0.975613 0.018159
v 0.030197 0.975613 0.012508
v 0.032057 0.975613 0.006377
v 0.032685 0.975613 -0.000000
v 0.032057 0.975613 -0.006377
v 0.030197 0.975613 -0.012508
v 0.027177 0.975613 -0.018159
v 0.023112 0.975613 -0.023112
v 0.018159 0.975613 -0.027177
v 0.012508 0.975613 -0.030197
v 0.006377 0.975613 -0.032057
v -0.000000 2.427125 -0.032685
v -0.006377 2.427125 -0.032057
v -0.012508 2.427125 -0.030197
v -0.018159 2.427125 -0.027177
v -0.023112 2.427125 -0.023112
v -0.027177 2.427125 -0.018159
v -0.030197 2.427125 -0.012508
v -0.032057 2.427125 -0.006377
v -0.032685 2.427125 -0.000000
v -0.032057 2.427125 0.006377
v -0.030197 2.427125 0.012508
v -0.027177 2.427125 0.018159
v -0.023112 2.427125 0.023112
v -0.018159 2.427125 0.027177
v -0.012508 2.427125 0.030197
v -0.006377 2.427125 0.032057
v -0.000000 2.427125 0.032685
v 0.006377 2.427125 0.032057
v 0.012508 2.427125 0.030197
v 0.018159 2.427125 0.027177
v 0.023112 2.427125 0.023112
v 0.027177 2.427125 0.018159
v 0.030197 2.427125 0.012508
v 0.032057 2.427125 0.006377
v 0.032685 2.427125 -0.000000
v 0.032057 2.427125 -0.006377
v 0.030197 2.427125 -0.012508
v 0.027177 2.427125 -0.018159
v 0.023112 2.427125 -0.023112
v 0.018159 2.427125 -0.027177
v 0.012508 2.427125 -0.030197
v 0.006377 2.427125 -0.032057
v 0.005674 2.427126 -0.029942
v -0.001331 2.427125 -0.028465
v -0.008237 2.427126 -0.025824
v -0.014779 2.427126 -0.022118
v -0.020706 2.427125 -0.017492
v -0.025789 2.427126 -0.012123
v -0.029834 2.427126 -0.006216
v 0.011303 2.427126 -0.025789
v 0.004068 2.427125 -0.023328
v -0.003268 2.427125 -0.019888
v -0.010424 2.427126 -0.015600
v -0.017123 2.427125 -0.010630
v -0.023109 2.427125 -0.005169
v -0.028152 2.427126 0.000573
v 0.016617 2.427126 -0.020467
v 0.009518 2.427125 -0.016983
v 0.002088 2.427126 -0.012795
v -0.005387 2.427126 -0.008062
v -0.012620 2.427125 -0.002967
v -0.019333 2.427126 0.002294
v -0.025268 2.427126 0.007519
v 0.021353 2.427126 -0.014267
v 0.014708 2.427125 -0.009827
v 0.007498 2.427125 -0.005010
v 0.000000 2.427126 -0.000000
v -0.007498 2.427125 0.005010
v -0.014708 2.427125 0.009827
v -0.021353 2.427126 0.014267
v 0.025268 2.427126 -0.007519
v 0.019333 2.427125 -0.002294
v 0.012620 2.427125 0.002967
v 0.005387 2.427126 0.008062
v -0.002088 2.427125 0.012795
v -0.009518 2.427125 0.016983
v -0.016617 2.427126 0.020467
v 0.028152 2.427126 -0.000573
v 0.023109 2.427125 0.005169
v 0.017123 2.427125 0.010630
v 0.010424 2.427126 0.015600
v 0.003268 2.427125 0.019888
v -0.004068 2.427125 0.023328
v -0.011303 2.427126 0.025789
v 0.029834 2.427126 0.006216
v 0.025789 2.427125 0.012123
v 0.020706 2.427125 0.017492
v 0.014779 2.427126 0.022118
v 0.008237 2.427125 0.025824
v 0.001331 2.427125 0.028465
v -0.005674 2.427126 0.029942
v 0.000000 2.396276 0.026549
v -0.001623 2.396116 0.026549
v -0.003184 2.395643 0.026549
v -0.004622 2.394874 0.026549
v -0.005883 2.393839 0.026549
v -0.006918 2.392579 0.026549
v -0.007687 2.391140 0.026549
v -0.008160 2.389579 0.026549
v -0.008320 2.387956 0.026549
v -0.008160 2.386333 0.026549
v -0.007687 2.384772 0.026549
v -0.006918 2.383334 0.026549
v -0.005883 2.382073 0.026549
v -0.004622 2.381038 0.026549
v -0.003184 2.380270 0.026549
v -0.001623 2.379796 0.026549
v 0.000000 2.379636 0.026549
v 0.001623 2.379796 0.026549
v 0.003184 2.380270 0.026549
v 0.004622 2.381038 0.026549
v 0.005883 2.382073 0.026549
v 0.006918 2.383334 0.026549
v 0.007687 2.384772 0.026549
v 0.008160 2.386333 0.026549
v 0.008320 2.387956 0.026549
v 0.008160 2.389579 0.026549
v 0.007687 2.391140 0.026549
v 0.006918 2.392579 0.026549
v 0.005883 2.393839 0.026549
v 0.004622 2.394874 0.026549
v 0.003184 2.395643 0.026549
v 0.001623 2.396116 0.026549
v 0.000000 2.396276 0.366278
v -0.001623 2.396116 0.366278
v -0.003184 2.395643 0.366278
v -0.004622 2.394874 0.366278
v -0.005883 2.393839 0.366278
v -0.006918 2.392579 0.366278
v -0.007687 2.391140 0.366278
v -0.008160 2.389579 0.366278
v -0.008320 2.387956 0.366278
v -0.008160 2.386333 0.366278
v -0.007687 2.384772 0.366278
v -0.006918 2.383334 0.366278
v -0.005883 2.382073 0.366278
v -0.004622 2.381038 0.366278
v -0.003184 2.380270 0.366278
v -0.001623 2.379796 0.366278
v 0.000000 2.379636 0.366278
v 0.001623 2.379796 0.366278
v 0.003184 2.380270 0.366278
v 0.004622 2.381038 0.366278
v 0.005883 2.382073 0.366278
v 0.006918 2.383334 0.366278
v 0.007687 2.384772 0.366278
v 0.008160 2.386333 0.366278
v 0.008320 2.387956 0.366278
v 0.008160 2.389579 0.366278
v 0.007687 2.391140 0.366278
v 0.006918 2.392579 0.366278
v 0.005883 2.393839 0.366278
v 0.004622 2.394874 0.366278
v 0.003184 2.395643 0.366278
v 0.001623 2.396116 0.366278
v -0.000000 2.398316 0.366218
v -0.000000 2.368744 0.292295
v -0.000000 2.350412 0.286204
v 0.011718 2.394670 0.337929
v 0.021652 2.384285 0.313946
v 0.028289 2.368744 0.297922
v 0.030620 2.350412 0.292295
v 0.021652 2.394670 0.344566
v 0.040007 2.384285 0.326211
v 0.052271 2.368744 0.313946
v 0.056578 2.350412 0.309640
v 0.028289 2.394670 0.354500
v 0.052271 2.384285 0.344566
v 0.068296 2.368744 0.337929
v 0.073923 2.350412 0.335598
v 0.030620 2.394670 0.366218
v 0.056578 2.384285 0.366218
v 0.073923 2.368744 0.366218
v 0.080014 2.350412 0.366218
v 0.028289 2.394670 0.377936
v 0.052271 2.384285 0.387869
v 0.068296 2.368744 0.394507
v 0.073923 2.350412 0.396838
v 0.021652 2.394670 0.387869
v 0.040007 2.384285 0.406225
v 0.052271 2.368744 0.418489
v 0.056578 2.350412 0.422796
v 0.011718 2.394670 0.394507
v 0.021651 2.384285 0.418489
v 0.028289 2.368744 0.434514
v 0.030620 2.350412 0.440141
v -0.000000 2.394670 0.396838
v -0.000000 2.384285 0.422796
v -0.000000 2.368744 0.440141
v -0.000000 2.350412 0.446231
v -0.011718 2.394670 0.394507
v -0.021652 2.384285 0.418489
v -0.028289 2.368744 0.434514
v -0.030620 2.350412 0.440141
v -0.021652 2.394670 0.387869
v -0.040007 2.384285 0.406225
v -0.052271 2.368744 0.418489
v -0.056578 2.350412 0.422796
v -0.028289 2.394670 0.377936
v -0.052271 2.384285 0.387869
v -0.068296 2.368744 0.394507
v -0.073923 2.350412 0.396838
v -0.030620 2.394670 0.366218
v -0.056578 2.384285 0.366218
v -0.073923 2.368744 0.366218
v -0.080014 2.350412 0.366218
v -0.028289 2.394670 0.354500
v -0.052271 2.384285 0.344566
v -0.068296 2.368744 0.337929
v -0.073923 2.350412 0.335598
v -0.021652 2.394670 0.344566
v -0.040007 2.384285 0.326211
v -0.052271 2.368744 0.313946
v -0.056578 2.350412 0.309640
v -0.011718 2.394670 0.337929
v -0.021651 2.384285 0.313946
v -0.028289 2.368744 0.297922
v -0.030620 2.350412 0.292295
v 0.000000 2.394670 0.335598
v 0.000000 2.384285 0.309640
v 0.000000 2.380635 0.366218
v -0.229932 2.331125 0.285220
v -0.229323 2.332563 0.285690
v 0.000000 2.367954 0.326155
v 0.000000 2.360093 0.322854
v 0.000000 2.352232 0.326155
v -0.228504 2.333824 0.286322
v 0.000000 2.341114 0.349623
v 0.000000 2.339550 0.366218
v -0.227506 2.334858 0.287092
v 0.006351 2.379072 0.350887
v 0.011734 2.374619 0.337889
v 0.015331 2.367954 0.329205
v 0.016595 2.360093 0.326155
v 0.015331 2.352232 0.329205
v 0.011734 2.345567 0.337889
v 0.006351 2.341114 0.350887
v -0.226368 2.335627 0.287972
v -0.225132 2.336101 0.288925
v 0.011734 2.379072 0.354484
v 0.021682 2.374619 0.344536
v 0.028329 2.367954 0.337889
v 0.030663 2.360093 0.335555
v 0.028329 2.352232 0.337889
v 0.021682 2.345567 0.344536
v 0.011734 2.341114 0.354484
v -0.223848 2.336261 0.289917
v -0.014940 2.336101 0.022006
v 0.015331 2.379072 0.359868
v 0.028329 2.374619 0.354484
v 0.037013 2.367954 0.350887
v 0.040063 2.360093 0.349624
v 0.037013 2.352232 0.350887
v 0.028329 2.345567 0.354484
v 0.015331 2.341114 0.359868
v -0.013705 2.335627 0.022960
v -0.012566 2.334858 0.023839
v 0.016595 2.379072 0.366218
v 0.030663 2.374619 0.366218
v 0.040063 2.367954 0.366218
v 0.043364 2.360093 0.366218
v 0.040063 2.352232 0.366218
v 0.030663 2.345567 0.366218
v 0.016595 2.341114 0.366218
v -0.011568 2.333824 0.024609
v -0.010749 2.332563 0.025242
v 0.015331 2.379072 0.372569
v 0.028329 2.374619 0.377952
v 0.037013 2.367954 0.381549
v 0.040063 2.360093 0.382813
v 0.037013 2.352232 0.381549
v 0.028329 2.345567 0.377952
v 0.015331 2.341114 0.372569
v -0.010141 2.331125 0.025712
v -0.009766 2.329564 0.026001
v 0.011734 2.379072 0.377952
v 0.021682 2.374619 0.387900
v 0.028329 2.367954 0.394547
v 0.030663 2.360093 0.396881
v 0.028329 2.352232 0.394547
v 0.021682 2.345567 0.387900
v 0.011734 2.341114 0.377952
v -0.009639 2.327940 0.026099
v -0.009766 2.326317 0.026001
v 0.006351 2.379072 0.381549
v 0.011734 2.374619 0.394547
v 0.015331 2.367954 0.403231
v 0.016595 2.360093 0.406281
v 0.015331 2.352232 0.403231
v 0.011734 2.345567 0.394547
v 0.006351 2.341114 0.381549
v -0.010141 2.324757 0.025712
v -0.010749 2.323318 0.025242
v 0.000000 2.379072 0.382813
v 0.000000 2.374619 0.396881
v 0.000000 2.367954 0.406281
v 0.000000 2.360093 0.409582
v 0.000000 2.352232 0.406281
v 0.000000 2.345567 0.396881
v 0.000000 2.341114 0.382813
v -0.011568 2.322057 0.024609
v -0.012566 2.321023 0.023839
v -0.006350 2.379072 0.381549
v -0.011734 2.374619 0.394547
v -0.015331 2.367954 0.403231
v -0.016595 2.360093 0.406281
v -0.015331 2.352232 0.403231
v -0.011734 2.345567 0.394547
v -0.006350 2.341114 0.381549
v -0.013705 2.320254 0.022960
v -0.014940 2.319780 0.022006
v -0.011734 2.379072 0.377952
v -0.021682 2.374619 0.387900
v -0.028329 2.367954 0.394547
v -0.030663 2.360093 0.396881
v -0.028329 2.352232 0.394547
v -0.021682 2.345567 0.387900
v -0.011734 2.341114 0.377952
v -0.016225 2.319620 0.021014
v -0.017510 2.319780 0.020022
v -0.015331 2.379072 0.372569
v -0.028329 2.374619 0.377952
v -0.037013 2.367954 0.381549
v -0.040063 2.360093 0.382813
v -0.037013 2.352232 0.381549
v -0.028329 2.345567 0.377952
v -0.015331 2.341114 0.372569
v -0.018745 2.320254 0.019068
v -0.019884 2.321023 0.018189
v -0.016595 2.379072 0.366218
v -0.030663 2.374619 0.366218
v -0.040063 2.367954 0.366218
v -0.043364 2.360093 0.366218
v -0.040063 2.352232 0.366218
v -0.030663 2.345567 0.366218
v -0.016595 2.341114 0.366218
v -0.020882 2.322057 0.017418
v -0.021701 2.323318 0.016786
v -0.015331 2.379072 0.359868
v -0.028329 2.374619 0.354484
v -0.037013 2.367954 0.350887
v -0.040063 2.360093 0.349623
v -0.037013 2.352232 0.350887
v -0.028329 2.345567 0.354484
v -0.015331 2.341114 0.359868
v -0.022309 2.324757 0.016316
v -0.022684 2.326317 0.016027
v -0.011734 2.379072 0.354484
v -0.021682 2.374619 0.344536
v -0.028329 2.367954 0.337889
v -0.030663 2.360093 0.335555
v -0.028329 2.352232 0.337889
v -0.021682 2.345567 0.344536
v -0.011734 2.341114 0.354484
v -0.022811 2.327940 0.015929
v -0.022684 2.329564 0.016027
v -0.006350 2.379072 0.350887
v -0.011734 2.374619 0.337889
v -0.015331 2.367954 0.329205
v -0.016595 2.360093 0.326155
v -0.015331 2.352232 0.329205
v -0.011734 2.345567 0.337889
v -0.006350 2.341114 0.350887
v -0.022309 2.331125 0.016316
v -0.021701 2.332563 0.016786
v 0.000000 2.379072 0.349623
v 0.000000 2.374619 0.335555
v -0.020882 2.333824 0.017418
v -0.019884 2.334858 0.018189
v -0.018745 2.335627 0.019068
v 0.000000 2.345567 0.335555
v -0.017510 2.336101 0.020022
v -0.016225 2.336261 0.021014
v -0.230307 2.329564 0.284930
v -0.230433 2.327940 0.284833
v -0.230307 2.326317 0.284930
v -0.229932 2.324757 0.285220
v -0.229323 2.323318 0.285690
v -0.228504 2.322057 0.286322
v -0.227506 2.321023 0.287092
v -0.226368 2.320254 0.287972
v -0.225132 2.319780 0.288925
v -0.223848 2.319620 0.289917
v -0.222563 2.319780 0.290909
v -0.221327 2.320254 0.291863
v -0.220189 2.321023 0.292742
v -0.219191 2.322057 0.293513
v -0.218372 2.323318 0.294145
v -0.217763 2.324757 0.294615
v -0.217389 2.326317 0.294904
v -0.217262 2.327940 0.295002
v -0.217389 2.329564 0.294904
v -0.217763 2.331125 0.294615
v -0.218372 2.332563 0.294145
v -0.219191 2.333824 0.293513
v -0.220189 2.334858 0.292742
v -0.221327 2.335627 0.291863
v -0.222563 2.336101 0.290909
v -0.223811 2.338300 0.289870
v -0.178633 2.308728 0.231358
v -0.174911 2.290396 0.226537
v -0.197247 2.334654 0.274639
v -0.174728 2.324270 0.261728
v -0.159681 2.308728 0.253100
v -0.154397 2.290396 0.250071
v -0.193441 2.334654 0.285964
v -0.167695 2.324270 0.282653
v -0.150491 2.308728 0.280441
v -0.144451 2.290396 0.279664
v -0.194258 2.334654 0.297883
v -0.169205 2.324270 0.304677
v -0.152464 2.308728 0.309216
v -0.146586 2.290396 0.310811
v -0.199574 2.334654 0.308583
v -0.179028 2.324270 0.324447
v -0.165299 2.308728 0.335047
v -0.160478 2.290396 0.338769
v -0.208580 2.334654 0.316433
v -0.195669 2.324270 0.338952
v -0.187042 2.308728 0.353999
v -0.184012 2.290396 0.359283
v -0.219905 2.334654 0.320239
v -0.216594 2.324270 0.345986
v -0.214382 2.308728 0.363189
v -0.213605 2.290396 0.369230
v -0.231824 2.334654 0.319422
v -0.238618 2.324270 0.344476
v -0.243158 2.308728 0.361216
v -0.244752 2.290396 0.367094
v -0.242524 2.334654 0.314106
v -0.258388 2.324270 0.334652
v -0.268988 2.308728 0.348381
v -0.272710 2.290396 0.353202
v -0.250374 2.334654 0.305100
v -0.272893 2.324270 0.318011
v -0.287940 2.308728 0.326639
v -0.293224 2.290396 0.329668
v -0.254180 2.334654 0.293775
v -0.279927 2.324270 0.297086
v -0.297130 2.308728 0.299298
v -0.303171 2.290396 0.300075
v -0.253363 2.334654 0.281856
v -0.278417 2.324270 0.275062
v -0.295157 2.308728 0.270523
v -0.301035 2.290396 0.268929
v -0.248047 2.334654 0.271156
v -0.268593 2.324270 0.255292
v -0.282322 2.308728 0.244692
v -0.287143 2.290396 0.240970
v -0.239041 2.334654 0.263306
v -0.251952 2.324270 0.240787
v -0.260580 2.308728 0.225740
v -0.263609 2.290396 0.220456
v -0.227716 2.334654 0.259500
v -0.231027 2.324270 0.233753
v -0.233239 2.308728 0.216550
v -0.234016 2.290396 0.210509
v -0.215797 2.334654 0.260317
v -0.209003 2.324270 0.235263
v -0.204464 2.308728 0.218523
v -0.202870 2.290396 0.212645
v -0.205098 2.334654 0.265633
v -0.189233 2.324270 0.245087
v -0.223811 2.320620 0.289870
v -0.199327 2.307939 0.258159
v -0.197309 2.300077 0.255546
v -0.199327 2.292216 0.258159
v -0.213669 2.281099 0.276735
v -0.223811 2.279535 0.289870
v -0.209415 2.319056 0.281616
v -0.197210 2.314603 0.274618
v -0.189055 2.307939 0.269943
v -0.186192 2.300077 0.268301
v -0.189055 2.292216 0.269943
v -0.197210 2.285552 0.274618
v -0.209415 2.281099 0.281616
v -0.207352 2.319056 0.287753
v -0.193398 2.314603 0.285959
v -0.184075 2.307939 0.284760
v -0.180801 2.300077 0.284339
v -0.184075 2.292216 0.284760
v -0.193398 2.285552 0.285959
v -0.207352 2.281099 0.287753
v -0.207795 2.319056 0.294213
v -0.194217 2.314603 0.297895
v -0.185144 2.307939 0.300355
v -0.181958 2.300077 0.301219
v -0.185144 2.292216 0.300355
v -0.194217 2.285552 0.297895
v -0.207795 2.281099 0.294213
v -0.210676 2.319056 0.300011
v -0.199540 2.314603 0.308609
v -0.192100 2.307939 0.314354
v -0.189487 2.300077 0.316371
v -0.192100 2.292216 0.314354
v -0.199540 2.285552 0.308609
v -0.210676 2.281099 0.300011
v -0.215557 2.319056 0.304266
v -0.208559 2.314603 0.316470
v -0.203883 2.307939 0.324625
v -0.202242 2.300077 0.327489
v -0.203883 2.292216 0.324625
v -0.208559 2.285552 0.316470
v -0.215557 2.281099 0.304266
v -0.221694 2.319056 0.306329
v -0.219900 2.314603 0.320282
v -0.218701 2.307939 0.329605
v -0.218280 2.300077 0.332879
v -0.218701 2.292216 0.329605
v -0.219900 2.285552 0.320282
v -0.221694 2.281099 0.306329
v -0.228154 2.319056 0.305886
v -0.231836 2.314603 0.319464
v -0.234296 2.307939 0.328536
v -0.235160 2.300077 0.331722
v -0.234296 2.292216 0.328536
v -0.231836 2.285552 0.319464
v -0.228154 2.281099 0.305886
v -0.233952 2.319056 0.303005
v -0.242550 2.314603 0.314140
v -0.248295 2.307939 0.321580
v -0.250312 2.300077 0.324193
v -0.248295 2.292216 0.321580
v -0.242550 2.285552 0.314140
v -0.233952 2.281099 0.303005
v -0.238207 2.319056 0.298124
v -0.250411 2.314603 0.305121
v -0.258566 2.307939 0.309797
v -0.261430 2.300077 0.311439
v -0.258566 2.292216 0.309797
v -0.250411 2.285552 0.305121
v -0.238207 2.281099 0.298124
v -0.240270 2.319056 0.291986
v -0.254223 2.314603 0.293781
v -0.263546 2.307939 0.294980
v -0.266820 2.300077 0.295401
v -0.263546 2.292216 0.294980
v -0.254223 2.285552 0.293781
v -0.240270 2.281099 0.291986
v -0.239827 2.319056 0.285527
v -0.253405 2.314603 0.281845
v -0.262477 2.307939 0.279385
v -0.265663 2.300077 0.278521
v -0.262477 2.292216 0.279385
v -0.253405 2.285552 0.281845
v -0.239827 2.281099 0.285527
v -0.236946 2.319056 0.279728
v -0.248081 2.314603 0.271130
v -0.255521 2.307939 0.265386
v -0.258134 2.300077 0.263368
v -0.255521 2.292216 0.265386
v -0.248081 2.285552 0.271130
v -0.236946 2.281099 0.279728
v -0.232065 2.319056 0.275474
v -0.239062 2.314603 0.263269
v -0.243738 2.307939 0.255114
v -0.245380 2.300077 0.252251
v -0.243738 2.292216 0.255114
v -0.239062 2.285552 0.263269
v -0.232065 2.281099 0.275474
v -0.225927 2.319056 0.273411
v -0.227722 2.314603 0.259457
v -0.228921 2.307939 0.250134
v -0.229342 2.300077 0.246860
v -0.228921 2.292216 0.250134
v -0.227722 2.285552 0.259457
v -0.225927 2.281099 0.273411
v -0.219468 2.319056 0.273854
v -0.215786 2.314603 0.260276
v -0.213325 2.307939 0.251203
v -0.212462 2.300077 0.248017
v -0.213325 2.292216 0.251203
v -0.215786 2.285552 0.260276
v -0.219468 2.281099 0.273854
v -0.213669 2.319056 0.276735
v -0.205071 2.314603 0.265599
v -0.205071 2.285552 0.265599
vn -0.6741 -0.6839 -0.2792
vn -0.6066 -0.6839 -0.4053
vn 0.7156 -0.6839 -0.1423
vn 0.7296 -0.6839 -0.0000
vn -0.7156 -0.6839 -0.1423
vn 0.6741 -0.6839 -0.2792
vn -0.7296 -0.6839 -0.0000
vn 0.6066 -0.6839 -0.4053
vn -0.7156 -0.6839 0.1423
vn 0.5159 -0.6839 -0.5159
vn -0.6741 -0.6839 0.2792
vn 0.4053 -0.6839 -0.6066
vn -0.6066 -0.6839 0.4053
vn 0.2792 -0.6839 -0.6741
vn 0.1423 -0.6839 0.7156
vn -0.0000 -0.6839 0.7296
vn -0.5159 -0.6839 0.5159
vn 0.1423 -0.6839 -0.7156
vn 0.2792 -0.6839 0.6741
vn -0.4053 -0.6839 0.6066
vn -0.0000 -0.6839 -0.7296
vn 0.4053 -0.6839 0.6066
vn -0.2792 -0.6839 0.6741
vn -0.1423 -0.6839 -0.7156
vn 0.5159 -0.6839 0.5159
vn -0.1423 -0.6839 0.7156
vn -0.2792 -0.6839 -0.6741
vn 0.6066 -0.6839 0.4053
vn -0.4053 -0.6839 -0.6066
vn 0.6741 -0.6839 0.2792
vn -0.5159 -0.6839 -0.5159
vn 0.7156 -0.6839 0.1423
vn -0.1951 -0.0000 -0.9808
vn -0.0000 -0.0000 -1.0000
vn -0.0000 -0.2507 -0.9681
vn -0.1889 -0.2507 -0.9495
vn 0.7071 -0.0000 0.7071
vn 0.5556 -0.0000 0.8315
vn 0.5378 -0.2507 0.8049
vn 0.6845 -0.2507 0.6845
vn -0.1951 -0.0000 0.9808
vn -0.3827 -0.0000 0.9239
vn -0.3705 -0.2507 0.8944
vn -0.1889 -0.2507 0.9495
vn -0.3827 -0.0000 -0.9239
vn -0.3705 -0.2507 -0.8944
vn 0.8315 -0.0000 0.5556
vn 0.8049 -0.2507 0.5378
vn -0.0000 -0.0000 1.0000
vn -0.0000 -0.2507 0.9681
vn -0.5556 -0.0000 -0.8315
vn -0.5378 -0.2507 -0.8049
vn 0.9239 -0.0000 0.3827
vn 0.8944 -0.2507 0.3705
vn -0.7071 -0.0000 -0.7071
vn -0.6845 -0.2507 -0.6845
vn 0.9808 -0.0000 0.1951
vn 0.9495 -0.2507 0.1889
vn -0.8315 -0.0000 -0.5556
vn -0.8049 -0.2507 -0.5378
vn 1.0000 -0.0000 -0.0000
vn 0.9681 -0.2507 -0.0000
vn -0.9239 -0.0000 -0.3827
vn -0.8944 -0.2507 -0.3705
vn 0.9808 -0.0000 -0.1951
vn 0.9495 -0.2507 -0.1889
vn -0.9808 -0.0000 -0.1951
vn -0.9495 -0.2507 -0.1889
vn 0.9239 -0.0000 -0.3827
vn 0.8944 -0.2507 -0.3705
vn -1.0000 -0.0000 -0.0000
vn -0.9681 -0.2507 -0.0000
vn 0.8315 -0.0000 -0.5556
vn 0.8049 -0.2507 -0.5378
vn -0.9808 -0.0000 0.1951
vn -0.9495 -0.2507 0.1889
vn 0.7071 -0.0000 -0.7071
vn 0.6845 -0.2507 -0.6845
vn -0.9239 -0.0000 0.3827
vn -0.8944 -0.2507 0.3705
vn 0.5556 -0.0000 -0.8315
vn 0.5378 -0.2507 -0.8049
vn -0.8315 -0.0000 0.5556
vn -0.8049 -0.2507 0.5378
vn 0.3827 -0.0000 -0.9239
vn 0.3705 -0.2507 -0.8944
vn 0.1951 -0.0000 0.9808
vn 0.1889 -0.2507 0.9495
vn -0.7071 -0.0000 0.7071
vn -0.6845 -0.2507 0.6845
vn 0.1951 -0.0000 -0.9808
vn 0.1889 -0.2507 -0.9495
vn 0.3827 -0.0000 0.9239
vn 0.3705 -0.2507 0.8944
vn -0.5556 -0.0000 0.8315
vn -0.5378 -0.2507 0.8049
vn -0.5367 -0.2585 -0.8032
vn -0.6831 -0.2585 -0.6831
vn 0.8925 -0.2585 0.3697
vn 0.9474 -0.2585 0.1885
vn -0.8032 -0.2585 -0.5367
vn 0.9660 -0.2585 -0.0000
vn -0.8925 -0.2585 -0.3697
vn 0.9474 -0.2585 -0.1885
vn -0.9474 -0.2585 -0.1885
vn 0.8925 -0.2585 -0.3697
vn -0.9660 -0.2585 -0.0000
vn 0.8032 -0.2585 -0.5367
vn -0.9474 -0.2585 0.1885
vn 0.6831 -0.2585 -0.6831
vn -0.8925 -0.2585 0.3697
vn 0.5367 -0.2585 -0.8032
vn -0.8032 -0.2585 0.5367
vn 0.3697 -0.2585 -0.8925
vn -0.0000 -0.2585 0.9660
vn 0.1885 -0.2585 0.9474
vn -0.6831 -0.2585 0.6831
vn 0.1885 -0.2585 -0.9474
vn 0.3697 -0.2585 0.8925
vn -0.5367 -0.2585 0.8032
vn -0.0000 -0.2585 -0.9660
vn 0.5367 -0.2585 0.8032
vn -0.3697 -0.2585 0.8925
vn -0.1885 -0.2585 -0.9474
vn 0.6831 -0.2585 0.6831
vn -0.1885 -0.2585 0.9474
vn -0.3697 -0.2585 -0.8925
vn 0.8032 -0.2585 0.5367
vn -0.0000 -1.0000 0.0001
vn -0.0000 -1.0000 -0.0000
vn -0.0001 -1.0000 -0.0000
vn 0.0001 -1.0000 -0.0000
vn -0.0000 -1.0000 -0.0001
vn -0.3827 0.9239 -0.0000
vn -0.5556 0.8315 -0.0000
vn 0.5556 0.8315 -0.0000
vn 0.3827 0.9239 -0.0000
vn 0.1952 -0.9808 -0.0000
vn -0.7071 0.7071 -0.0000
vn 0.1950 0.9808 -0.0000
vn 0.3826 -0.9239 -0.0000
vn -0.8315 0.5556 -0.0000
vn -0.0000 1.0000 -0.0000
vn 0.5555 -0.8315 -0.0000
vn -0.9239 0.3827 -0.0000
vn 0.7071 -0.7071 -0.0000
vn -0.9808 0.1951 -0.0000
vn 0.8315 -0.5556 -0.0000
vn 0.9239 -0.3827 -0.0000
vn -0.9808 -0.1951 -0.0000
vn 0.9808 -0.1951 -0.0000
vn -0.9239 -0.3827 -0.0000
vn -0.8315 -0.5556 -0.0000
vn 0.9808 0.1951 -0.0000
vn -0.7071 -0.7071 -0.0000
vn 0.9239 0.3827 -0.0000
vn -0.5555 -0.8315 -0.0000
vn 0.8315 0.5556 -0.0000
vn -0.3826 -0.9239 -0.0000
vn -0.1950 0.9808 -0.0000
vn 0.7071 0.7071 -0.0000
vn -0.1952 -0.9808 -0.0000
vn -0.0000 0.3153 -0.9490
vn -0.0000 0.5343 -0.8453
vn 0.3235 0.5343 -0.7810
vn 0.3632 0.3153 -0.8768
vn -0.0000 0.8399 -0.5428
vn -0.0000 0.9650 -0.2622
vn 0.1003 0.9650 -0.2422
vn 0.2077 0.8399 -0.5014
vn 0.3838 0.8399 -0.3838
vn 0.5977 0.5343 -0.5977
vn 0.1854 0.9650 -0.1854
vn 0.6710 0.3153 -0.6710
vn 0.5014 0.8399 -0.2077
vn 0.7810 0.5343 -0.3235
vn 0.2422 0.9650 -0.1003
vn 0.8768 0.3153 -0.3632
vn 0.8453 0.5343 -0.0000
vn 0.9490 0.3153 -0.0000
vn 0.2622 0.9650 -0.0000
vn 0.5428 0.8399 -0.0000
vn 0.2422 0.9650 0.1003
vn 0.5014 0.8399 0.2077
vn 0.7810 0.5343 0.3235
vn 0.8768 0.3153 0.3632
vn 0.3838 0.8399 0.3838
vn 0.5977 0.5343 0.5977
vn 0.1854 0.9650 0.1854
vn 0.6710 0.3153 0.6710
vn 0.1003 0.9650 0.2422
vn 0.3235 0.5343 0.7810
vn 0.3632 0.3153 0.8768
vn 0.2077 0.8399 0.5014
vn -0.0000 0.5343 0.8453
vn -0.0000 0.3153 0.9490
vn -0.0000 0.9650 0.2622
vn -0.0000 0.8399 0.5428
vn -0.2077 0.8399 0.5014
vn -0.3235 0.5343 0.7810
vn -0.1003 0.9650 0.2422
vn -0.3632 0.3153 0.8768
vn -0.3838 0.8399 0.3838
vn -0.5977 0.5343 0.5977
vn -0.1854 0.9650 0.1854
vn -0.6710 0.3153 0.6710
vn -0.7810 0.5343 0.3235
vn -0.8768 0.3153 0.3632
vn -0.2422 0.9650 0.1003
vn -0.5014 0.8399 0.2077
vn -0.8453 0.5343 -0.0000
vn -0.9490 0.3153 -0.0000
vn -0.2622 0.9650 -0.0000
vn -0.5428 0.8399 -0.0000
vn -0.5014 0.8399 -0.2077
vn -0.7810 0.5343 -0.3235
vn -0.2422 0.9650 -0.1003
vn -0.8768 0.3153 -0.3632
vn -0.3838 0.8399 -0.3838
vn -0.5977 0.5343 -0.5977
vn -0.1854 0.9650 -0.1854
vn -0.6710 0.3153 -0.6710
vn -0.3235 0.5343 -0.7810
vn -0.3632 0.3153 -0.8768
vn -0.1003 0.9650 -0.2422
vn -0.2077 0.8399 -0.5014
vn -0.0000 -0.9774 -0.2116
vn 0.0810 -0.9774 -0.1955
vn -0.0000 -0.8876 -0.4606
vn -0.0000 -0.8158 -0.5784
vn 0.2213 -0.8158 -0.5343
vn 0.1763 -0.8876 -0.4255
vn -0.0000 0.3871 -0.9220
vn 0.3528 0.3871 -0.8518
vn -0.0000 0.8876 -0.4606
vn -0.0000 0.9774 -0.2116
vn 0.0810 0.9774 -0.1955
vn 0.1763 0.8876 -0.4255
vn -0.0000 -0.3872 -0.9220
vn 0.3528 -0.3872 -0.8518
vn -0.0000 0.8158 -0.5784
vn 0.2213 0.8158 -0.5343
vn 0.3257 -0.8876 -0.3257
vn 0.1496 -0.9774 -0.1496
vn 0.6520 -0.3872 -0.6520
vn 0.3257 0.8876 -0.3257
vn 0.4090 0.8158 -0.4090
vn 0.1496 0.9774 -0.1496
vn 0.4090 -0.8158 -0.4090
vn 0.6520 0.3871 -0.6520
vn 0.8518 -0.3872 -0.3528
vn 0.4255 0.8876 -0.1763
vn 0.5343 0.8158 -0.2213
vn 0.1955 0.9774 -0.0810
vn 0.1955 -0.9774 -0.0810
vn 0.5343 -0.8158 -0.2213
vn 0.4255 -0.8876 -0.1763
vn 0.8518 0.3871 -0.3528
vn 0.2116 -0.9774 -0.0000
vn 0.5784 -0.8158 -0.0000
vn 0.4606 -0.8876 -0.0000
vn 0.9220 0.3871 -0.0000
vn 0.2116 0.9774 -0.0000
vn 0.4606 0.8876 -0.0000
vn 0.9220 -0.3872 -0.0000
vn 0.5784 0.8158 -0.0000
vn 0.8518 0.3871 0.3528
vn 0.1955 0.9774 0.0810
vn 0.4255 0.8876 0.1763
vn 0.4256 -0.8876 0.1763
vn 0.1955 -0.9774 0.0810
vn 0.8518 -0.3872 0.3528
vn 0.5343 0.8158 0.2213
vn 0.5343 -0.8158 0.2213
vn 0.3257 -0.8876 0.3257
vn 0.1496 -0.9774 0.1496
vn 0.6520 -0.3871 0.6520
vn 0.3257 0.8876 0.3257
vn 0.4090 0.8158 0.4090
vn 0.1496 0.9774 0.1496
vn 0.4090 -0.8158 0.4090
vn 0.6520 0.3871 0.6520
vn 0.1763 0.8876 0.4255
vn 0.2213 0.8158 0.5343
vn 0.0810 0.9774 0.1955
vn 0.0810 -0.9774 0.1955
vn 0.2213 -0.8158 0.5343
vn 0.1763 -0.8876 0.4255
vn 0.3528 0.3871 0.8518
vn 0.3528 -0.3872 0.8518
vn -0.0000 -0.9774 0.2116
vn -0.0000 -0.8158 0.5784
vn -0.0000 -0.8876 0.4606
vn -0.0000 0.3871 0.9220
vn -0.0000 0.9774 0.2116
vn -0.0000 0.8876 0.4606
vn -0.0000 -0.3872 0.9220
vn -0.0000 0.8158 0.5784
vn -0.0810 0.9774 0.1955
vn -0.1763 0.8876 0.4255
vn -0.1763 -0.8876 0.4255
vn -0.0810 -0.9774 0.1955
vn -0.3528 -0.3871 0.8518
vn -0.2213 0.8158 0.5343
vn -0.2213 -0.8158 0.5343
vn -0.3528 0.3871 0.8518
vn -0.3257 -0.8876 0.3257
vn -0.1496 -0.9774 0.1496
vn -0.6520 -0.3871 0.6520
vn -0.3257 0.8876 0.3257
vn -0.4090 0.8158 0.4090
vn -0.1496 0.9774 0.1496
vn -0.4090 -0.8158 0.4090
vn -0.6520 0.3871 0.6520
vn -0.1955 0.9774 0.0810
vn -0.1955 -0.9774 0.0810
vn -0.5343 -0.8158 0.2213
vn -0.4255 -0.8876 0.1763
vn -0.8518 0.3871 0.3528
vn -0.4255 0.8876 0.1763
vn -0.8518 -0.3872 0.3528
vn -0.5343 0.8158 0.2213
vn -0.5784 -0.8158 -0.0000
vn -0.4606 -0.8876 -0.0000
vn -0.9220 0.3871 -0.0000
vn -0.2116 0.9774 -0.0000
vn -0.4606 0.8876 -0.0000
vn -0.2116 -0.9774 -0.0000
vn -0.9220 -0.3872 -0.0000
vn -0.5784 0.8158 -0.0000
vn -0.4255 -0.8876 -0.1763
vn -0.1955 -0.9774 -0.0810
vn -0.8518 -0.3871 -0.3528
vn -0.4255 0.8876 -0.1763
vn -0.5343 0.8158 -0.2213
vn -0.1955 0.9774 -0.0810
vn -0.5343 -0.8158 -0.2213
vn -0.8518 0.3871 -0.3528
vn -0.6520 -0.3872 -0.6520
vn -0.3257 0.8876 -0.3257
vn -0.4090 0.8158 -0.4090
vn -0.1496 0.9774 -0.1496
vn -0.1496 -0.9774 -0.1496
vn -0.4090 -0.8158 -0.4090
vn -0.3257 -0.8876 -0.3257
vn -0.6520 0.3871 -0.6520
vn -0.0810 -0.9774 -0.1955
vn -0.2213 -0.8158 -0.5343
vn -0.1763 -0.8876 -0.4255
vn -0.3528 0.3871 -0.8518
vn -0.0810 0.9774 -0.1955
vn -0.1763 0.8876 -0.4255
vn -0.3528 -0.3872 -0.8518
vn -0.2213 0.8158 -0.5343
vn -0.3029 0.9239 -0.2339
vn -0.4398 0.8315 -0.3395
vn 0.4397 0.8315 0.3396
vn 0.3029 0.9239 0.2339
vn 0.1545 -0.9808 0.1193
vn -0.5597 0.7071 -0.4321
vn 0.1543 0.9808 0.1192
vn 0.3029 -0.9239 0.2338
vn -0.6581 0.5556 -0.5081
vn 0.4397 -0.8315 0.3395
vn -0.7313 0.3827 -0.5646
vn 0.5597 -0.7071 0.4321
vn -0.7763 0.1951 -0.5994
vn 0.6581 -0.5556 0.5082
vn -0.7915 -0.0000 -0.6111
vn 0.7313 -0.3827 0.5646
vn -0.7763 -0.1951 -0.5994
vn 0.7763 -0.1951 0.5994
vn -0.7313 -0.3827 -0.5646
vn 0.7915 -0.0000 0.6111
vn -0.6581 -0.5556 -0.5082
vn 0.7763 0.1951 0.5994
vn -0.5597 -0.7071 -0.4321
vn 0.7312 0.3827 0.5647
vn -0.4397 -0.8315 -0.3395
vn 0.6581 0.5556 0.5081
vn -0.3028 -0.9239 -0.2339
vn -0.1543 0.9808 -0.1192
vn 0.5597 0.7071 0.4321
vn -0.1545 -0.9808 -0.1193
vn 0.5800 0.3153 -0.7511
vn 0.5166 0.5343 -0.6691
vn 0.7333 0.5343 -0.4205
vn 0.8233 0.3153 -0.4720
vn 0.3317 0.8399 -0.4296
vn 0.1602 0.9650 -0.2075
vn 0.2274 0.9650 -0.1304
vn 0.4709 0.8399 -0.2700
vn 0.5383 0.8399 -0.0692
vn 0.8384 0.5343 -0.1078
vn 0.2600 0.9650 -0.0334
vn 0.9412 0.3153 -0.1210
vn 0.5238 0.8399 0.1421
vn 0.8159 0.5343 0.2212
vn 0.2530 0.9650 0.0686
vn 0.9159 0.3153 0.2484
vn 0.6691 0.5343 0.5166
vn 0.7511 0.3153 0.5800
vn 0.2075 0.9650 0.1602
vn 0.4296 0.8399 0.3317
vn 0.1304 0.9650 0.2274
vn 0.2700 0.8399 0.4709
vn 0.4205 0.5343 0.7333
vn 0.4720 0.3153 0.8233
vn 0.0692 0.8399 0.5383
vn 0.1078 0.5343 0.8384
vn 0.0334 0.9650 0.2600
vn 0.1210 0.3153 0.9412
vn -0.0686 0.9650 0.2530
vn -0.2212 0.5343 0.8159
vn -0.2484 0.3153 0.9159
vn -0.1420 0.8399 0.5238
vn -0.5166 0.5343 0.6691
vn -0.5800 0.3153 0.7512
vn -0.1602 0.9650 0.2075
vn -0.3317 0.8399 0.4296
vn -0.4709 0.8399 0.2700
vn -0.7333 0.5343 0.4205
vn -0.2274 0.9650 0.1304
vn -0.8233 0.3153 0.4720
vn -0.5383 0.8399 0.0692
vn -0.8384 0.5343 0.1078
vn -0.2600 0.9650 0.0334
vn -0.9412 0.3153 0.1210
vn -0.8159 0.5343 -0.2212
vn -0.9159 0.3153 -0.2484
vn -0.2530 0.9650 -0.0686
vn -0.5238 0.8399 -0.1421
vn -0.6691 0.5343 -0.5166
vn -0.7511 0.3153 -0.5800
vn -0.2075 0.9650 -0.1602
vn -0.4296 0.8399 -0.3317
vn -0.2700 0.8399 -0.4709
vn -0.4205 0.5343 -0.7333
vn -0.1304 0.9650 -0.2274
vn -0.4720 0.3153 -0.8233
vn -0.0692 0.8399 -0.5383
vn -0.1078 0.5343 -0.8384
vn -0.0334 0.9650 -0.2600
vn -0.1210 0.3153 -0.9412
vn 0.2212 0.5343 -0.8159
vn 0.2484 0.3153 -0.9159
vn 0.0686 0.9650 -0.2530
vn 0.1421 0.8399 -0.5238
vn 0.1293 -0.9774 -0.1675
vn 0.1835 -0.9774 -0.1052
vn 0.2815 -0.8876 -0.3646
vn 0.3535 -0.8158 -0.4578
vn 0.5018 -0.8158 -0.2877
vn 0.3996 -0.8876 -0.2291
vn 0.5635 0.3871 -0.7298
vn 0.7999 0.3871 -0.4586
vn 0.2815 0.8876 -0.3646
vn 0.1293 0.9774 -0.1675
vn 0.1836 0.9774 -0.1052
vn 0.3996 0.8876 -0.2291
vn 0.5635 -0.3872 -0.7298
vn 0.7999 -0.3872 -0.4586
vn 0.3535 0.8158 -0.4578
vn 0.5018 0.8158 -0.2877
vn 0.4569 -0.8876 -0.0588
vn 0.2098 -0.9774 -0.0270
vn 0.9145 -0.3872 -0.1176
vn 0.4568 0.8876 -0.0588
vn 0.5736 0.8158 -0.0738
vn 0.2099 0.9774 -0.0270
vn 0.5737 -0.8158 -0.0738
vn 0.9145 0.3871 -0.1176
vn 0.8899 -0.3872 0.2413
vn 0.4446 0.8876 0.1206
vn 0.5582 0.8158 0.1514
vn 0.2042 0.9774 0.0554
vn 0.2042 -0.9774 0.0554
vn 0.5582 -0.8158 0.1514
vn 0.4446 -0.8876 0.1205
vn 0.8899 0.3871 0.2413
vn 0.1675 -0.9774 0.1293
vn 0.4578 -0.8158 0.3535
vn 0.3646 -0.8876 0.2815
vn 0.7298 0.3871 0.5635
vn 0.1675 0.9774 0.1293
vn 0.3646 0.8876 0.2815
vn 0.7298 -0.3872 0.5635
vn 0.4578 0.8158 0.3535
vn 0.4586 0.3871 0.7999
vn 0.1053 0.9774 0.1836
vn 0.2291 0.8876 0.3996
vn 0.2291 -0.8876 0.3996
vn 0.1052 -0.9774 0.1836
vn 0.4586 -0.3872 0.7999
vn 0.2877 0.8158 0.5018
vn 0.2877 -0.8158 0.5018
vn 0.0587 -0.8876 0.4568
vn 0.0270 -0.9774 0.2099
vn 0.1176 -0.3872 0.9145
vn 0.0587 0.8876 0.4568
vn 0.0738 0.8158 0.5736
vn 0.0270 0.9774 0.2099
vn 0.0738 -0.8158 0.5736
vn 0.1176 0.3871 0.9145
vn -0.1205 0.8876 0.4446
vn -0.1514 0.8158 0.5582
vn -0.0554 0.9774 0.2042
vn -0.0554 -0.9774 0.2042
vn -0.1514 -0.8158 0.5582
vn -0.1206 -0.8876 0.4446
vn -0.2413 0.3871 0.8899
vn -0.2413 -0.3871 0.8899
vn -0.1293 -0.9774 0.1675
vn -0.3535 -0.8158 0.4578
vn -0.2815 -0.8876 0.3646
vn -0.5635 0.3871 0.7298
vn -0.1293 0.9774 0.1675
vn -0.2815 0.8876 0.3646
vn -0.5635 -0.3872 0.7298
vn -0.3535 0.8158 0.4578
vn -0.1836 0.9774 0.1052
vn -0.3996 0.8876 0.2291
vn -0.3996 -0.8876 0.2291
vn -0.1835 -0.9774 0.1052
vn -0.7999 -0.3872 0.4586
vn -0.5017 0.8158 0.2877
vn -0.5018 -0.8158 0.2877
vn -0.7999 0.3871 0.4586
vn -0.4568 -0.8876 0.0588
vn -0.2098 -0.9774 0.0270
vn -0.9145 -0.3872 0.1176
vn -0.4568 0.8876 0.0588
vn -0.5736 0.8158 0.0738
vn -0.2099 0.9774 0.0270
vn -0.5736 -0.8158 0.0738
vn -0.9145 0.3871 0.1176
vn -0.2042 0.9774 -0.0554
vn -0.2042 -0.9774 -0.0554
vn -0.5582 -0.8158 -0.1514
vn -0.4446 -0.8876 -0.1206
vn -0.8899 0.3871 -0.2413
vn -0.4446 0.8876 -0.1206
vn -0.8899 -0.3872 -0.2413
vn -0.5582 0.8158 -0.1514
vn -0.4578 -0.8158 -0.3535
vn -0.3646 -0.8876 -0.2815
vn -0.7298 0.3871 -0.5635
vn -0.1675 0.9774 -0.1293
vn -0.3646 0.8876 -0.2815
vn -0.1675 -0.9774 -0.1293
vn -0.7298 -0.3872 -0.5635
vn -0.4578 0.8158 -0.3535
vn -0.2291 -0.8876 -0.3996
vn -0.1052 -0.9774 -0.1836
vn -0.4586 -0.3872 -0.7999
vn -0.2291 0.8876 -0.3996
vn -0.2877 0.8158 -0.5017
vn -0.1052 0.9774 -0.1836
vn -0.2877 -0.8158 -0.5017
vn -0.4586 0.3871 -0.7999
vn -0.1176 -0.3872 -0.9145
vn -0.0588 0.8876 -0.4568
vn -0.0738 0.8158 -0.5736
vn -0.0270 0.9774 -0.2099
vn -0.0270 -0.9774 -0.2099
vn -0.0738 -0.8158 -0.5736
vn -0.0587 -0.8876 -0.4568
vn -0.1176 0.3871 -0.9145
vn 0.0554 -0.9774 -0.2042
vn 0.1514 -0.8158 -0.5582
vn 0.1206 -0.8876 -0.4446
vn 0.2413 0.3871 -0.8899
vn 0.0554 0.9774 -0.2042
vn 0.1205 0.8876 -0.4446
vn 0.2413 -0.3872 -0.8899
vn 0.1514 0.8158 -0.5582
vt 0.000000 0.000000
vt 0.750000 0.500000
vt 0.750000 0.625000
vt 0.687500 0.625000
vt 0.687500 0.500000
vt 0.750000 0.750000
vt 0.750000 0.875000
vt 0.687500 0.875000
vt 0.687500 0.750000
vt 0.718750 1.000000
vt 0.625000 0.750000
vt 0.625000 0.625000
vt 0.656250 1.000000
vt 0.625000 0.875000
vt 0.625000 0.500000
vt 0.562500 0.750000
vt 0.562500 0.625000
vt 0.593750 1.000000
vt 0.562500 0.875000
vt 0.562500 0.500000
vt 0.500000 0.625000
vt 0.500000 0.500000
vt 0.500000 0.875000
vt 0.500000 0.750000
vt 0.531250 1.000000
vt 0.437500 0.875000
vt 0.437500 0.750000
vt 0.437500 0.625000
vt 0.468750 1.000000
vt 0.437500 0.500000
vt 0.375000 0.750000
vt 0.375000 0.625000
vt 0.406250 1.000000
vt 0.375000 0.875000
vt 0.375000 0.500000
vt 0.343750 1.000000
vt 0.312500 0.875000
vt 0.312500 0.625000
vt 0.312500 0.500000
vt 0.312500 0.750000
vt 0.250000 0.625000
vt 0.250000 0.500000
vt 0.250000 0.875000
vt 0.250000 0.750000
vt 0.281250 1.000000
vt 0.187500 0.750000
vt 0.187500 0.625000
vt 0.218750 1.000000
vt 0.187500 0.875000
vt 0.187500 0.500000
vt 0.125000 0.750000
vt 0.125000 0.625000
vt 0.156250 1.000000
vt 0.125000 0.875000
vt 0.125000 0.500000
vt 0.062500 0.625000
vt 0.062500 0.500000
vt 0.062500 0.875000
vt 0.062500 0.750000
vt 0.093750 1.000000
vt 0.000000 0.625000
vt 0.000000 0.500000
vt 0.000000 0.875000
vt 0.000000 0.750000
vt 0.031250 1.000000
vt 1.000000 0.625000
vt 1.000000 0.750000
vt 0.937500 0.750000
vt 0.937500 0.625000
vt 1.000000 0.875000
vt 0.968750 1.000000
vt 0.937500 0.875000
vt 1.000000 0.500000
vt 0.937500 0.500000
vt 0.875000 0.750000
vt 0.875000 0.625000
vt 0.906250 1.000000
vt 0.875000 0.875000
vt 0.875000 0.500000
vt 0.812500 0.625000
vt 0.812500 0.500000
vt 0.812500 0.875000
vt 0.812500 0.750000
vt 0.843750 1.000000
vt 0.781250 1.000000
vt 0.718750 0.000000
vt 0.750000 0.125000
vt 0.687500 0.125000
vt 0.750000 0.250000
vt 0.750000 0.375000
vt 0.687500 0.375000
vt 0.687500 0.250000
vt 0.625000 0.250000
vt 0.625000 0.125000
vt 0.625000 0.375000
vt 0.656250 0.000000
vt 0.562500 0.375000
vt 0.593750 0.000000
vt 0.562500 0.125000
vt 0.562500 0.250000
vt 0.531250 0.000000
vt 0.500000 0.125000
vt 0.500000 0.375000
vt 0.500000 0.250000
vt 0.437500 0.250000
vt 0.437500 0.125000
vt 0.437500 0.375000
vt 0.468750 0.000000
vt 0.375000 0.250000
vt 0.375000 0.125000
vt 0.375000 0.375000
vt 0.406250 0.000000
vt 0.343750 0.000000
vt 0.312500 0.125000
vt 0.312500 0.375000
vt 0.312500 0.250000
vt 0.281250 0.000000
vt 0.250000 0.125000
vt 0.250000 0.375000
vt 0.250000 0.250000
vt 0.187500 0.250000
vt 0.187500 0.125000
vt 0.187500 0.375000
vt 0.218750 0.000000
vt 0.125000 0.250000
vt 0.125000 0.125000
vt 0.125000 0.375000
vt 0.156250 0.000000
vt 0.093750 0.000000
vt 0.062500 0.125000
vt 0.062500 0.375000
vt 0.062500 0.250000
vt 0.000000 0.375000
vt 0.000000 0.250000
vt 0.000000 0.125000
vt 0.031250 0.000000
vt 1.000000 0.125000
vt 1.000000 0.250000
vt 0.937500 0.250000
vt 0.937500 0.125000
vt 1.000000 0.375000
vt 0.937500 0.375000
vt 0.968750 0.000000
vt 0.875000 0.375000
vt 0.906250 0.000000
vt 0.875000 0.125000
vt 0.875000 0.250000
vt 0.843750 0.000000
vt 0.812500 0.125000
vt 0.812500 0.375000
vt 0.812500 0.250000
vt 0.781250 0.000000
s 1
usemtl Light
f 347/86/130 346/87/227 355/88/228
f 489/89/229 344/90/230 353/91/231 354/92/232
f 343/2/233 342/3/233 351/4/234 352/5/234
f 485/6/235 484/7/236 349/8/237 350/9/238
f 346/87/227 489/89/229 354/92/232 355/88/228
f 344/90/239 343/2/239 352/5/240 353/91/240
f 342/3/241 485/6/235 350/9/238 351/4/242
f 484/7/236 339/10/143 349/8/237
f 355/88/228 354/92/232 363/93/243 364/94/244
f 353/91/240 352/5/240 361/15/245 362/95/245
f 351/4/242 350/9/238 359/11/246 360/12/247
f 349/8/237 339/13/143 358/14/248
f 347/96/130 355/88/228 364/94/244
f 354/92/232 353/91/231 362/95/249 363/93/243
f 352/5/234 351/4/234 360/12/250 361/15/250
f 350/9/238 349/8/237 358/14/248 359/11/246
f 362/95/245 361/15/245 370/20/251 371/97/251
f 360/12/247 359/11/246 368/16/252 369/17/253
f 358/14/248 339/18/143 367/19/254
f 347/98/130 364/94/244 373/99/255
f 363/93/243 362/95/249 371/97/256 372/100/257
f 361/15/250 360/12/250 369/17/258 370/20/258
f 359/11/246 358/14/248 367/19/254 368/16/252
f 364/94/244 363/93/243 372/100/257 373/99/255
f 347/101/130 373/99/255 382/102/259
f 372/100/257 371/97/256 380/103/260 381/104/261
f 370/20/258 369/17/258 378/21/262 379/22/262
f 368/16/252 367/19/254 376/23/263 377/24/264
f 373/99/255 372/100/257 381/104/261 382/102/259
f 371/97/251 370/20/251 379/22/265 380/103/265
f 369/17/253 368/16/252 377/24/264 378/21/266
f 367/19/254 339/25/143 376/23/263
f 379/22/262 378/21/262 387/28/267 388/30/267
f 377/24/264 376/23/263 385/26/268 386/27/269
f 382/102/259 381/104/261 390/105/270 391/106/271
f 380/103/265 379/22/265 388/30/272 389/107/272
f 378/21/266 377/24/264 386/27/269 387/28/273
f 376/23/263 339/29/143 385/26/268
f 347/108/130 382/102/259 391/106/271
f 381/104/261 380/103/260 389/107/274 390/105/270
f 391/106/271 390/105/270 399/109/275 400/110/276
f 389/107/272 388/30/272 397/35/277 398/111/277
f 387/28/273 386/27/269 395/31/278 396/32/279
f 385/26/268 339/33/143 394/34/280
f 347/112/130 391/106/271 400/110/276
f 390/105/270 389/107/274 398/111/281 399/109/275
f 388/30/267 387/28/267 396/32/282 397/35/282
f 386/27/269 385/26/268 394/34/280 395/31/278
f 396/32/279 395/31/278 404/40/283 405/38/284
f 394/34/280 339/36/143 403/37/285
f 347/113/130 400/110/276 409/114/286
f 399/109/275 398/111/281 407/115/287 408/116/288
f 397/35/282 396/32/282 405/38/289 406/39/289
f 395/31/278 394/34/280 403/37/285 404/40/283
f 400/110/276 399/109/275 408/116/288 409/114/286
f 398/111/277 397/35/277 406/39/290 407/115/290
f 347/117/130 409/114/286 418/118/291
f 408/116/288 407/115/287 416/119/292 417/120/293
f 406/39/289 405/38/289 414/41/294 415/42/294
f 404/40/283 403/37/285 412/43/295 413/44/296
f 409/114/286 408/116/288 417/120/293 418/118/291
f 407/115/290 406/39/290 415/42/297 416/119/297
f 405/38/284 404/40/283 413/44/296 414/41/298
f 403/37/285 339/45/143 412/43/295
f 413/44/296 412/43/295 421/49/299 422/46/300
f 418/118/291 417/120/293 426/121/301 427/122/302
f 416/119/297 415/42/297 424/50/303 425/123/303
f 414/41/298 413/44/296 422/46/300 423/47/304
f 412/43/295 339/48/143 421/49/299
f 347/124/130 418/118/291 427/122/302
f 417/120/293 416/119/292 425/123/305 426/121/301
f 415/42/294 414/41/294 423/47/306 424/50/306
f 427/122/302 426/121/301 435/125/307 436/126/308
f 425/123/303 424/50/303 433/55/309 434/127/309
f 423/47/304 422/46/300 431/51/310 432/52/311
f 421/49/299 339/53/143 430/54/312
f 347/128/130 427/122/302 436/126/308
f 426/121/301 425/123/305 434/127/313 435/125/307
f 424/50/306 423/47/306 432/52/314 433/55/314
f 422/46/300 421/49/299 430/54/312 431/51/310
f 430/54/312 339/60/143 439/58/315
f 347/129/130 436/126/308 445/130/316
f 435/125/307 434/127/313 443/131/317 444/132/318
f 433/55/314 432/52/314 441/56/319 442/57/319
f 431/51/310 430/54/312 439/58/315 440/59/320
f 436/126/308 435/125/307 444/132/318 445/130/316
f 434/127/309 433/55/309 442/57/321 443/131/321
f 432/52/311 431/51/310 440/59/320 441/56/322
f 444/132/318 443/131/317 452/133/323 453/134/324
f 442/57/319 441/56/319 450/61/325 451/62/325
f 440/59/320 439/58/315 448/63/326 449/64/327
f 445/130/316 444/132/318 453/134/324 454/135/328
f 443/131/321 442/57/321 451/62/329 452/133/329
f 441/56/322 440/59/320 449/64/327 450/61/330
f 439/58/315 339/65/143 448/63/326
f 347/136/130 445/130/316 454/135/328
f 454/137/328 453/138/324 462/139/331 463/140/332
f 452/141/329 451/73/329 460/74/333 461/142/333
f 450/66/330 449/67/327 458/68/334 459/69/335
f 448/70/326 339/71/143 457/72/336
f 347/143/130 454/137/328 463/140/332
f 453/138/324 452/141/323 461/142/337 462/139/331
f 451/73/325 450/66/325 459/69/338 460/74/338
f 449/67/327 448/70/326 457/72/336 458/68/334
f 461/142/333 460/74/333 469/79/339 470/144/339
f 459/69/335 458/68/334 467/75/340 468/76/341
f 457/72/336 339/77/143 466/78/342
f 347/145/130 463/140/332 472/146/343
f 462/139/331 461/142/337 470/144/344 471/147/345
f 460/74/338 459/69/338 468/76/346 469/79/346
f 458/68/334 457/72/336 466/78/342 467/75/340
f 463/140/332 462/139/331 471/147/345 472/146/343
f 347/148/130 472/146/343 481/149/347
f 471/147/345 470/144/344 479/150/348 480/151/349
f 469/79/346 468/76/346 477/80/350 478/81/350
f 467/75/340 466/78/342 475/82/351 476/83/352
f 472/146/343 471/147/345 480/151/349 481/149/347
f 470/144/339 469/79/339 478/81/353 479/150/353
f 468/76/341 467/75/340 476/83/352 477/80/354
f 466/78/342 339/84/143 475/82/351
f 478/81/350 477/80/350 342/3/233 343/2/233
f 476/83/352 475/82/351 484/7/236 485/6/235
f 481/149/347 480/151/349 489/89/229 346/87/227
f 479/150/353 478/81/353 343/2/239 344/90/239
f 477/80/354 476/83/352 485/6/235 342/3/241
f 475/82/351 339/85/143 484/7/236
f 347/152/130 481/149/347 346/87/227
f 480/151/349 479/150/348 344/90/230 489/89/229
f 587/86/130 586/87/449 594/88/450
f 695/89/451 585/90/452 592/91/453 593/92/454
f 584/2/455 583/3/455 590/4/456 591/5/456
f 694/6/457 693/7/458 588/8/459 589/9/460
f 586/87/449 695/89/451 593/92/454 594/88/450
f 585/90/461 584/2/461 591/5/462 592/91/462
f 583/3/463 694/6/457 589/9/460 590/4/464
f 693/7/458 582/10/143 588/8/459
f 594/88/450 593/92/454 600/93/465 601/94/466
f 592/91/462 591/5/462 598/15/467 599/95/467
f 590/4/464 589/9/460 596/11/468 597/12/469
f 588/8/459 582/13/143 595/14/470
f 587/96/130 594/88/450 601/94/466
f 593/92/454 592/91/453 599/95/471 600/93/465
f 591/5/456 590/4/456 597/12/472 598/15/472
f 589/9/460 588/8/459 595/14/470 596/11/468
f 599/95/467 598/15/467 605/20/473 606/97/473
f 597/12/469 596/11/468 603/16/474 604/17/475
f 595/14/470 582/18/143 602/19/476
f 587/98/130 601/94/466 608/99/477
f 600/93/465 599/95/471 606/97/478 607/100/479
f 598/15/472 597/12/472 604/17/480 605/20/480
f 596/11/468 595/14/470 602/19/476 603/16/474
f 601/94/466 600/93/465 607/100/479 608/99/477
f 587/101/130 608/99/477 615/102/481
f 607/100/479 606/97/478 613/103/482 614/104/483
f 605/20/480 604/17/480 611/21/484 612/22/484
f 603/16/474 602/19/476 609/23/485 610/24/486
f 608/99/477 607/100/479 614/104/483 615/102/481
f 606/97/473 605/20/473 612/22/487 613/103/487
f 604/17/475 603/16/474 610/24/486 611/21/488
f 602/19/476 582/25/143 609/23/485
f 612/22/484 611/21/484 618/28/489 619/30/489
f 610/24/486 609/23/485 616/26/490 617/27/491
f 615/102/481 614/104/483 621/105/492 622/106/493
f 613/103/487 612/22/487 619/30/494 620/107/494
f 611/21/488 610/24/486 617/27/491 618/28/495
f 609/23/485 582/29/143 616/26/490
f 587/108/130 615/102/481 622/106/493
f 614/104/483 613/103/482 620/107/496 621/105/492
f 622/106/493 621/105/492 628/109/497 629/110/498
f 620/107/494 619/30/494 626/35/499 627/111/499
f 618/28/495 617/27/491 624/31/500 625/32/501
f 616/26/490 582/33/143 623/34/502
f 587/112/130 622/106/493 629/110/498
f 621/105/492 620/107/496 627/111/503 628/109/497
f 619/30/489 618/28/489 625/32/504 626/35/504
f 617/27/491 616/26/490 623/34/502 624/31/500
f 625/32/501 624/31/500 631/40/505 632/38/506
f 623/34/502 582/36/143 630/37/507
f 587/113/130 629/110/498 636/114/508
f 628/109/497 627/111/503 634/115/509 635/116/510
f 626/35/504 625/32/504 632/38/511 633/39/511
f 624/31/500 623/34/502 630/37/507 631/40/505
f 629/110/498 628/109/497 635/116/510 636/114/508
f 627/111/499 626/35/499 633/39/512 634/115/512
f 587/117/130 636/114/508 643/118/513
f 635/116/510 634/115/509 641/119/514 642/120/515
f 633/39/511 632/38/511 639/41/516 640/42/516
f 631/40/505 630/37/507 637/43/517 638/44/518
f 636/114/508 635/116/510 642/120/515 643/118/513
f 634/115/512 633/39/512 640/42/519 641/119/519
f 632/38/506 631/40/505 638/44/518 639/41/520
f 630/37/507 582/45/143 637/43/517
f 638/44/518 637/43/517 644/49/521 645/46/522
f 643/118/513 642/120/515 649/121/523 650/122/524
f 641/119/519 640/42/519 647/50/525 648/123/525
f 639/41/520 638/44/518 645/46/522 646/47/526
f 637/43/517 582/48/143 644/49/521
f 587/124/130 643/118/513 650/122/524
f 642/120/515 641/119/514 648/123/527 649/121/523
f 640/42/516 639/41/516 646/47/528 647/50/528
f 650/122/524 649/121/523 656/125/529 657/126/530
f 648/123/525 647/50/525 654/55/531 655/127/531
f 646/47/526 645/46/522 652/51/532 653/52/533
f 644/49/521 582/53/143 651/54/534
f 587/128/130 650/122/524 657/126/530
f 649/121/523 648/123/527 655/127/535 656/125/529
f 647/50/528 646/47/528 653/52/536 654/55/536
f 645/46/522 644/49/521 651/54/534 652/51/532
f 651/54/534 582/60/143 658/58/537
f 587/129/130 657/126/530 664/130/538
f 656/125/529 655/127/535 662/131/539 663/132/540
f 654/55/536 653/52/536 660/56/541 661/57/541
f 652/51/532 651/54/534 658/58/537 659/59/542
f 657/126/530 656/125/529 663/132/540 664/130/538
f 655/127/531 654/55/531 661/57/543 662/131/543
f 653/52/533 652/51/532 659/59/542 660/56/544
f 663/132/540 662/131/539 669/133/545 670/134/546
f 661/57/541 660/56/541 667/61/547 668/62/547
f 659/59/542 658/58/537 665/63/548 666/64/549
f 664/130/538 663/132/540 670/134/546 671/135/550
f 662/131/543 661/57/543 668/62/551 669/133/551
f 660/56/544 659/59/542 666/64/549 667/61/552
f 658/58/537 582/65/143 665/63/548
f 587/136/130 664/130/538 671/135/550
f 671/137/550 670/138/546 677/139/553 678/140/554
f 669/141/551 668/73/551 675/74/555 676/142/555
f 667/66/552 666/67/549 673/68/556 674/69/557
f 665/70/548 582/71/143 672/72/558
f 587/143/130 671/137/550 678/140/554
f 670/138/546 669/141/545 676/142/559 677/139/553
f 668/73/547 667/66/547 674/69/560 675/74/560
f 666/67/549 665/70/548 672/72/558 673/68/556
f 676/142/555 675/74/555 682/79/561 683/144/561
f 674/69/557 673/68/556 680/75/562 681/76/563
f 672/72/558 582/77/143 679/78/564
f 587/145/130 678/140/554 685/146/565
f 677/139/553 676/142/559 683/144/566 684/147/567
f 675/74/560 674/69/560 681/76/568 682/79/568
f 673/68/556 672/72/558 679/78/564 680/75/562
f 678/140/554 677/139/553 684/147/567 685/146/565
f 587/148/130 685/146/565 692/149/569
f 684/147/567 683/144/566 690/150/570 691/151/571
f 682/79/568 681/76/568 688/80/572 689/81/572
f 680/75/562 679/78/564 686/82/573 687/83/574
f 685/146/565 684/147/567 691/151/571 692/149/569
f 683/144/561 682/79/561 689/81/575 690/150/575
f 681/76/563 680/75/562 687/83/574 688/80/576
f 679/78/564 582/84/143 686/82/573
f 689/81/572 688/80/572 583/3/455 584/2/455
f 687/83/574 686/82/573 693/7/458 694/6/457
f 692/149/569 691/151/571 695/89/451 586/87/449
f 690/150/575 689/81/575 584/2/461 585/90/461
f 688/80/576 687/83/574 694/6/457 583/3/463
f 686/82/573 582/85/143 693/7/458
f 587/152/130 692/149/569 586/87/449
f 691/151/571 690/150/570 585/90/452 695/89/451
usemtl Metall
f 23/1/1 22/1/2 54/1/2 55/1/1
f 10/1/3 9/1/4 41/1/4 42/1/3
f 24/1/5 23/1/1 55/1/1 56/1/5
f 11/1/6 10/1/3 42/1/3 43/1/6
f 25/1/7 24/1/5 56/1/5 57/1/7
f 12/1/8 11/1/6 43/1/6 44/1/8
f 26/1/9 25/1/7 57/1/7 58/1/9
f 13/1/10 12/1/8 44/1/8 45/1/10
f 27/1/11 26/1/9 58/1/9 59/1/11
f 14/1/12 13/1/10 45/1/10 46/1/12
f 28/1/13 27/1/11 59/1/11 60/1/13
f 15/1/14 14/1/12 46/1/12 47/1/14
f 2/1/15 1/1/16 33/1/16 34/1/15
f 29/1/17 28/1/13 60/1/13 61/1/17
f 16/1/18 15/1/14 47/1/14 48/1/18
f 3/1/19 2/1/15 34/1/15 35/1/19
f 30/1/20 29/1/17 61/1/17 62/1/20
f 17/1/21 16/1/18 48/1/18 49/1/21
f 4/1/22 3/1/19 35/1/19 36/1/22
f 31/1/23 30/1/20 62/1/20 63/1/23
f 18/1/24 17/1/21 49/1/21 50/1/24
f 5/1/25 4/1/22 36/1/22 37/1/25
f 32/1/26 31/1/23 63/1/23 64/1/26
f 19/1/27 18/1/24 50/1/24 51/1/27
f 6/1/28 5/1/25 37/1/25 38/1/28
f 1/1/16 32/1/26 64/1/26 33/1/16
f 20/1/29 19/1/27 51/1/27 52/1/29
f 7/1/30 6/1/28 38/1/28 39/1/30
f 21/1/31 20/1/29 52/1/29 53/1/31
f 8/1/32 7/1/30 39/1/30 40/1/32
f 22/1/2 21/1/31 53/1/31 54/1/2
f 9/1/4 8/1/32 40/1/32 41/1/4
f 50/1/33 49/1/34 81/1/35 82/1/36
f 37/1/37 36/1/38 68/1/39 69/1/40
f 64/1/41 63/1/42 95/1/43 96/1/44
f 51/1/45 50/1/33 82/1/36 83/1/46
f 38/1/47 37/1/37 69/1/40 70/1/48
f 33/1/49 64/1/41 96/1/44 65/1/50
f 52/1/51 51/1/45 83/1/46 84/1/52
f 39/1/53 38/1/47 70/1/48 71/1/54
f 53/1/55 52/1/51 84/1/52 85/1/56
f 40/1/57 39/1/53 71/1/54 72/1/58
f 54/1/59 53/1/55 85/1/56 86/1/60
f 41/1/61 40/1/57 72/1/58 73/1/62
f 55/1/63 54/1/59 86/1/60 87/1/64
f 42/1/65 41/1/61 73/1/62 74/1/66
f 56/1/67 55/1/63 87/1/64 88/1/68
f 43/1/69 42/1/65 74/1/66 75/1/70
f 57/1/71 56/1/67 88/1/68 89/1/72
f 44/1/73 43/1/69 75/1/70 76/1/74
f 58/1/75 57/1/71 89/1/72 90/1/76
f 45/1/77 44/1/73 76/1/74 77/1/78
f 59/1/79 58/1/75 90/1/76 91/1/80
f 46/1/81 45/1/77 77/1/78 78/1/82
f 60/1/83 59/1/79 91/1/80 92/1/84
f 47/1/85 46/1/81 78/1/82 79/1/86
f 34/1/87 33/1/49 65/1/50 66/1/88
f 61/1/89 60/1/83 92/1/84 93/1/90
f 48/1/91 47/1/85 79/1/86 80/1/92
f 35/1/93 34/1/87 66/1/88 67/1/94
f 62/1/95 61/1/89 93/1/90 94/1/96
f 49/1/34 48/1/91 80/1/92 81/1/35
f 36/1/38 35/1/93 67/1/94 68/1/39
f 63/1/42 62/1/95 94/1/96 95/1/43
f 85/1/56 84/1/52 116/1/97 117/1/98
f 72/1/58 71/1/54 103/1/99 104/1/100
f 86/1/60 85/1/56 117/1/98 118/1/101
f 73/1/62 72/1/58 104/1/100 105/1/102
f 87/1/64 86/1/60 118/1/101 119/1/103
f 74/1/66 73/1/62 105/1/102 106/1/104
f 88/1/68 87/1/64 119/1/103 120/1/105
f 75/1/70 74/1/66 106/1/104 107/1/106
f 89/1/72 88/1/68 120/1/105 121/1/107
f 76/1/74 75/1/70 107/1/106 108/1/108
f 90/1/76 89/1/72 121/1/107 122/1/109
f 77/1/78 76/1/74 108/1/108 109/1/110
f 91/1/80 90/1/76 122/1/109 123/1/111
f 78/1/82 77/1/78 109/1/110 110/1/112
f 92/1/84 91/1/80 123/1/111 124/1/113
f 79/1/86 78/1/82 110/1/112 111/1/114
f 66/1/88 65/1/50 97/1/115 98/1/116
f 93/1/90 92/1/84 124/1/113 125/1/117
f 80/1/92 79/1/86 111/1/114 112/1/118
f 67/1/94 66/1/88 98/1/116 99/1/119
f 94/1/96 93/1/90 125/1/117 126/1/120
f 81/1/35 80/1/92 112/1/118 113/1/121
f 68/1/39 67/1/94 99/1/119 100/1/122
f 95/1/43 94/1/96 126/1/120 127/1/123
f 82/1/36 81/1/35 113/1/121 114/1/124
f 69/1/40 68/1/39 100/1/122 101/1/125
f 96/1/44 95/1/43 127/1/123 128/1/126
f 83/1/46 82/1/36 114/1/124 115/1/127
f 70/1/48 69/1/40 101/1/125 102/1/128
f 65/1/50 96/1/44 128/1/126 97/1/115
f 84/1/52 83/1/46 115/1/127 116/1/97
f 71/1/54 70/1/48 102/1/128 103/1/99
f 120/1/105 119/1/103 151/1/63 152/1/67
f 107/1/106 106/1/104 138/1/65 139/1/69
f 121/1/107 120/1/105 152/1/67 153/1/71
f 108/1/108 107/1/106 139/1/69 140/1/73
f 122/1/109 121/1/107 153/1/71 154/1/75
f 109/1/110 108/1/108 140/1/73 141/1/77
f 123/1/111 122/1/109 154/1/75 155/1/79
f 110/1/112 109/1/110 141/1/77 142/1/81
f 124/1/113 123/1/111 155/1/79 156/1/83
f 111/1/114 110/1/112 142/1/81 143/1/85
f 98/1/116 97/1/115 129/1/49 130/1/87
f 125/1/117 124/1/113 156/1/83 157/1/89
f 112/1/118 111/1/114 143/1/85 144/1/91
f 99/1/119 98/1/116 130/1/87 131/1/93
f 126/1/120 125/1/117 157/1/89 158/1/95
f 113/1/121 112/1/118 144/1/91 145/1/34
f 100/1/122 99/1/119 131/1/93 132/1/38
f 127/1/123 126/1/120 158/1/95 159/1/42
f 114/1/124 113/1/121 145/1/34 146/1/33
f 101/1/125 100/1/122 132/1/38 133/1/37
f 128/1/126 127/1/123 159/1/42 160/1/41
f 115/1/127 114/1/124 146/1/33 147/1/45
f 102/1/128 101/1/125 133/1/37 134/1/47
f 97/1/115 128/1/126 160/1/41 129/1/49
f 116/1/97 115/1/127 147/1/45 148/1/51
f 103/1/99 102/1/128 134/1/47 135/1/53
f 117/1/98 116/1/97 148/1/51 149/1/55
f 104/1/100 103/1/99 135/1/53 136/1/57
f 118/1/101 117/1/98 149/1/55 150/1/59
f 105/1/102 104/1/100 136/1/57 137/1/61
f 119/1/103 118/1/101 150/1/59 151/1/63
f 106/1/104 105/1/102 137/1/61 138/1/65
f 160/1/129 159/1/129 161/1/130 129/1/130
f 159/1/129 158/1/130 168/1/130 161/1/130
f 158/1/130 157/1/130 175/1/130 168/1/130
f 157/1/130 156/1/130 182/1/130 175/1/130
f 156/1/130 155/1/130 189/1/130 182/1/130
f 155/1/130 154/1/131 196/1/130 189/1/130
f 154/1/131 153/1/131 203/1/130 196/1/130
f 153/1/131 152/1/132 151/1/130 203/1/130
f 129/1/130 161/1/130 162/1/130 130/1/130
f 161/1/130 168/1/130 169/1/130 162/1/130
f 168/1/130 175/1/130 176/1/130 169/1/130
f 175/1/130 182/1/130 183/1/130 176/1/130
f 182/1/130 189/1/130 190/1/130 183/1/130
f 189/1/130 196/1/130 197/1/130 190/1/130
f 196/1/130 203/1/130 204/1/130 197/1/130
f 203/1/130 151/1/130 150/1/130 204/1/130
f 130/1/130 162/1/130 163/1/130 131/1/130
f 162/1/130 169/1/130 170/1/130 163/1/130
f 169/1/130 176/1/130 177/1/130 170/1/130
f 176/1/130 183/1/130 184/1/130 177/1/130
f 183/1/130 190/1/130 191/1/130 184/1/130
f 190/1/130 197/1/130 198/1/130 191/1/130
f 197/1/130 204/1/130 205/1/130 198/1/130
f 204/1/130 150/1/130 149/1/130 205/1/130
f 131/1/130 163/1/130 164/1/130 132/1/130
f 163/1/130 170/1/130 171/1/130 164/1/130
f 170/1/130 177/1/130 178/1/130 171/1/130
f 177/1/130 184/1/130 185/1/130 178/1/130
f 184/1/130 191/1/130 192/1/130 185/1/130
f 191/1/130 198/1/130 199/1/130 192/1/130
f 198/1/130 205/1/130 206/1/130 199/1/130
f 205/1/130 149/1/130 148/1/130 206/1/130
f 132/1/130 164/1/130 165/1/130 133/1/130
f 164/1/130 171/1/130 172/1/130 165/1/130
f 171/1/130 178/1/130 179/1/130 172/1/130
f 178/1/130 185/1/130 186/1/130 179/1/130
f 185/1/130 192/1/130 193/1/130 186/1/130
f 192/1/130 199/1/130 200/1/130 193/1/130
f 199/1/130 206/1/130 207/1/130 200/1/130
f 206/1/130 148/1/130 147/1/130 207/1/130
f 133/1/130 165/1/130 166/1/130 134/1/130
f 165/1/130 172/1/130 173/1/130 166/1/130
f 172/1/130 179/1/130 180/1/130 173/1/130
f 179/1/130 186/1/130 187/1/130 180/1/130
f 186/1/130 193/1/130 194/1/130 187/1/130
f 193/1/130 200/1/130 201/1/130 194/1/130
f 200/1/130 207/1/130 208/1/130 201/1/130
f 207/1/130 147/1/130 146/1/130 208/1/130
f 134/1/130 166/1/130 167/1/130 135/1/130
f 166/1/130 173/1/130 174/1/130 167/1/130
f 173/1/130 180/1/130 181/1/130 174/1/130
f 180/1/130 187/1/130 188/1/130 181/1/130
f 187/1/130 194/1/130 195/1/130 188/1/130
f 194/1/130 201/1/130 202/1/130 195/1/130
f 201/1/130 208/1/130 209/1/130 202/1/130
f 208/1/130 146/1/130 145/1/130 209/1/130
f 135/1/130 167/1/130 137/1/130 136/1/130
f 167/1/130 174/1/130 138/1/130 137/1/130
f 174/1/130 181/1/130 139/1/130 138/1/130
f 181/1/130 188/1/130 140/1/130 139/1/130
f 188/1/130 195/1/130 141/1/130 140/1/130
f 195/1/130 202/1/130 142/1/130 141/1/130
f 202/1/130 209/1/130 143/1/133 142/1/130
f 209/1/130 145/1/130 144/1/133 143/1/133
f 212/1/134 213/1/135 245/1/135 244/1/134
f 239/1/136 240/1/137 272/1/137 271/1/136
f 226/1/130 227/1/138 259/1/138 258/1/130
f 213/1/135 214/1/139 246/1/139 245/1/135
f 240/1/137 241/1/140 273/1/140 272/1/137
f 227/1/138 228/1/141 260/1/141 259/1/138
f 214/1/139 215/1/142 247/1/142 246/1/139
f 241/1/140 210/1/143 242/1/143 273/1/140
f 228/1/141 229/1/144 261/1/144 260/1/141
f 215/1/142 216/1/145 248/1/145 247/1/142
f 229/1/144 230/1/146 262/1/146 261/1/144
f 216/1/145 217/1/147 249/1/147 248/1/145
f 230/1/146 231/1/148 263/1/148 262/1/146
f 217/1/147 218/1/71 250/1/71 249/1/147
f 231/1/148 232/1/149 264/1/149 263/1/148
f 218/1/71 219/1/150 251/1/150 250/1/71
f 232/1/149 233/1/151 265/1/151 264/1/149
f 219/1/150 220/1/152 252/1/152 251/1/150
f 233/1/151 234/1/61 266/1/61 265/1/151
f 220/1/152 221/1/153 253/1/153 252/1/152
f 234/1/61 235/1/154 267/1/154 266/1/61
f 221/1/153 222/1/155 254/1/155 253/1/153
f 235/1/154 236/1/156 268/1/156 267/1/154
f 222/1/155 223/1/157 255/1/157 254/1/155
f 236/1/156 237/1/158 269/1/158 268/1/156
f 223/1/157 224/1/159 256/1/159 255/1/157
f 210/1/143 211/1/160 243/1/160 242/1/143
f 237/1/158 238/1/161 270/1/161 269/1/158
f 224/1/159 225/1/162 257/1/162 256/1/159
f 211/1/160 212/1/134 244/1/134 243/1/160
f 238/1/161 239/1/136 271/1/136 270/1/161
f 225/1/162 226/1/130 258/1/130 257/1/162
f 276/2/163 275/3/164 279/4/165 280/5/166
f 338/6/167 337/7/168 277/8/169 278/9/170
f 275/3/164 338/6/167 278/9/170 279/4/165
f 337/7/168 274/10/143 277/8/169
f 279/4/165 278/9/170 282/11/171 283/12/172
f 277/8/169 274/13/143 281/14/173
f 280/5/166 279/4/165 283/12/172 284/15/174
f 278/9/170 277/8/169 281/14/173 282/11/171
f 283/12/172 282/11/171 286/16/175 287/17/176
f 281/14/173 274/18/143 285/19/177
f 284/15/174 283/12/172 287/17/176 288/20/178
f 282/11/171 281/14/173 285/19/177 286/16/175
f 288/20/178 287/17/176 291/21/179 292/22/180
f 286/16/175 285/19/177 289/23/181 290/24/182
f 287/17/176 286/16/175 290/24/182 291/21/179
f 285/19/177 274/25/143 289/23/181
f 290/24/182 289/23/181 293/26/183 294/27/184
f 291/21/179 290/24/182 294/27/184 295/28/185
f 289/23/181 274/29/143 293/26/183
f 292/22/180 291/21/179 295/28/185 296/30/186
f 295/28/185 294/27/184 298/31/187 299/32/188
f 293/26/183 274/33/143 297/34/189
f 296/30/186 295/28/185 299/32/188 300/35/190
f 294/27/184 293/26/183 297/34/189 298/31/187
f 297/34/189 274/36/143 301/37/191
f 300/35/190 299/32/188 303/38/192 304/39/193
f 298/31/187 297/34/189 301/37/191 302/40/194
f 299/32/188 298/31/187 302/40/194 303/38/192
f 304/39/193 303/38/192 307/41/195 308/42/196
f 302/40/194 301/37/191 305/43/197 306/44/198
f 303/38/192 302/40/194 306/44/198 307/41/195
f 301/37/191 274/45/143 305/43/197
f 307/41/195 306/44/198 310/46/199 311/47/200
f 305/43/197 274/48/143 309/49/201
f 308/42/196 307/41/195 311/47/200 312/50/202
f 306/44/198 305/43/197 309/49/201 310/46/199
f 311/47/200 310/46/199 314/51/203 315/52/204
f 309/49/201 274/53/143 313/54/205
f 312/50/202 311/47/200 315/52/204 316/55/206
f 310/46/199 309/49/201 313/54/205 314/51/203
f 316/55/206 315/52/204 319/56/207 320/57/208
f 314/51/203 313/54/205 317/58/209 318/59/210
f 315/52/204 314/51/203 318/59/210 319/56/207
f 313/54/205 274/60/143 317/58/209
f 320/57/208 319/56/207 323/61/211 324/62/212
f 318/59/210 317/58/209 321/63/213 322/64/214
f 319/56/207 318/59/210 322/64/214 323/61/211
f 317/58/209 274/65/143 321/63/213
f 323/66/211 322/67/214 326/68/215 327/69/216
f 321/70/213 274/71/143 325/72/217
f 324/73/212 323/66/211 327/69/216 328/74/218
f 322/67/214 321/70/213 325/72/217 326/68/215
f 327/69/216 326/68/215 330/75/219 331/76/220
f 325/72/217 274/77/143 329/78/221
f 328/74/218 327/69/216 331/76/220 332/79/222
f 326/68/215 325/72/217 329/78/221 330/75/219
f 332/79/222 331/76/220 335/80/223 336/81/224
f 330/75/219 329/78/221 333/82/225 334/83/226
f 331/76/220 330/75/219 334/83/226 335/80/223
f 329/78/221 274/84/143 333/82/225
f 334/83/226 333/82/225 337/7/168 338/6/167
f 335/80/223 334/83/226 338/6/167 275/3/164
f 333/82/225 274/85/143 337/7/168
f 336/81/224 335/80/223 275/3/164 276/2/163
f 488/1/355 487/1/356 348/1/356 356/1/355
f 375/1/357 374/1/358 515/1/358 514/1/357
f 437/1/130 429/1/359 502/1/359 501/1/130
f 487/1/356 486/1/360 345/1/360 348/1/356
f 374/1/358 366/1/361 516/1/361 515/1/358
f 429/1/359 428/1/362 503/1/362 502/1/359
f 486/1/360 483/1/363 341/1/363 345/1/360
f 366/1/361 491/1/143 365/1/143 516/1/361
f 428/1/362 420/1/364 504/1/364 503/1/362
f 483/1/363 482/1/365 340/1/365 341/1/363
f 420/1/364 419/1/366 505/1/366 504/1/364
f 482/1/365 474/1/367 492/1/367 340/1/365
f 419/1/366 411/1/368 506/1/368 505/1/366
f 474/1/367 473/1/369 493/1/369 492/1/367
f 411/1/368 410/1/370 507/1/370 506/1/368
f 473/1/369 465/1/371 494/1/371 493/1/369
f 410/1/370 402/1/372 508/1/372 507/1/370
f 465/1/371 464/1/373 495/1/373 494/1/371
f 402/1/372 401/1/374 509/1/374 508/1/372
f 464/1/373 456/1/375 496/1/375 495/1/373
f 401/1/374 393/1/376 510/1/376 509/1/374
f 456/1/375 455/1/377 497/1/377 496/1/375
f 393/1/376 392/1/378 511/1/378 510/1/376
f 455/1/377 447/1/379 498/1/379 497/1/377
f 392/1/378 384/1/380 512/1/380 511/1/378
f 447/1/379 446/1/381 499/1/381 498/1/379
f 491/1/143 490/1/382 357/1/382 365/1/143
f 384/1/380 383/1/383 513/1/383 512/1/380
f 446/1/381 438/1/384 500/1/384 499/1/381
f 490/1/382 488/1/355 356/1/355 357/1/382
f 383/1/383 375/1/357 514/1/357 513/1/383
f 438/1/384 437/1/130 501/1/130 500/1/384
f 519/2/385 518/3/386 522/4/387 523/5/388
f 581/6/389 580/7/390 520/8/391 521/9/392
f 518/3/386 581/6/389 521/9/392 522/4/387
f 580/7/390 517/10/143 520/8/391
f 522/4/387 521/9/392 525/11/393 526/12/394
f 520/8/391 517/13/143 524/14/395
f 523/5/388 522/4/387 526/12/394 527/15/396
f 521/9/392 520/8/391 524/14/395 525/11/393
f 526/12/394 525/11/393 529/16/397 530/17/398
f 524/14/395 517/18/143 528/19/399
f 527/15/396 526/12/394 530/17/398 531/20/400
f 525/11/393 524/14/395 528/19/399 529/16/397
f 531/20/400 530/17/398 534/21/401 535/22/402
f 529/16/397 528/19/399 532/23/403 533/24/404
f 530/17/398 529/16/397 533/24/404 534/21/401
f 528/19/399 517/25/143 532/23/403
f 533/24/404 532/23/403 536/26/405 537/27/406
f 534/21/401 533/24/404 537/27/406 538/28/407
f 532/23/403 517/29/143 536/26/405
f 535/22/402 534/21/401 538/28/407 539/30/408
f 538/28/407 537/27/406 541/31/409 542/32/410
f 536/26/405 517/33/143 540/34/411
f 539/30/408 538/28/407 542/32/410 543/35/412
f 537/27/406 536/26/405 540/34/411 541/31/409
f 540/34/411 517/36/143 544/37/413
f 543/35/412 542/32/410 546/38/414 547/39/415
f 541/31/409 540/34/411 544/37/413 545/40/416
f 542/32/410 541/31/409 545/40/416 546/38/414
f 547/39/415 546/38/414 550/41/417 551/42/418
f 545/40/416 544/37/413 548/43/419 549/44/420
f 546/38/414 545/40/416 549/44/420 550/41/417
f 544/37/413 517/45/143 548/43/419
f 550/41/417 549/44/420 553/46/421 554/47/422
f 548/43/419 517/48/143 552/49/423
f 551/42/418 550/41/417 554/47/422 555/50/424
f 549/44/420 548/43/419 552/49/423 553/46/421
f 554/47/422 553/46/421 557/51/425 558/52/426
f 552/49/423 517/53/143 556/54/427
f 555/50/424 554/47/422 558/52/426 559/55/428
f 553/46/421 552/49/423 556/54/427 557/51/425
f 559/55/428 558/52/426 562/56/429 563/57/430
f 557/51/425 556/54/427 560/58/431 561/59/432
f 558/52/426 557/51/425 561/59/432 562/56/429
f 556/54/427 517/60/143 560/58/431
f 563/57/430 562/56/429 566/61/433 567/62/434
f 561/59/432 560/58/431 564/63/435 565/64/436
f 562/56/429 561/59/432 565/64/436 566/61/433
f 560/58/431 517/65/143 564/63/435
f 566/66/433 565/67/436 569/68/437 570/69/438
f 564/70/435 517/71/143 568/72/439
f 567/73/434 566/66/433 570/69/438 571/74/440
f 565/67/436 564/70/435 568/72/439 569/68/437
f 570/69/438 569/68/437 573/75/441 574/76/442
f 568/72/439 517/77/143 572/78/443
f 571/74/440 570/69/438 574/76/442 575/79/444
f 569/68/437 568/72/439 572/78/443 573/75/441
f 575/79/444 574/76/442 578/80/445 579/81/446
f 573/75/441 572/78/443 576/82/447 577/83/448
f 574/76/442 573/75/441 577/83/448 578/80/445
f 572/78/443 517/84/143 576/82/447
f 577/83/448 576/82/447 580/7/390 581/6/389
f 578/80/445 577/83/448 581/6/389 518/3/386
f 576/82/447 517/85/143 580/7/390
f 579/81/446 578/80/445 518/3/386 519/2/385
