# Blender 5.1.1
# www.blender.org
mtllib waterfront railing.mtl
o Plane
v -0.052944 2.036132 -0.053649
v -0.026464 2.036132 -0.026880
v -0.045188 2.036132 -0.034721
v -0.026464 0.036132 0.272335
v -0.052944 0.036132 0.245589
v -0.045188 0.036132 0.264502
v -0.026464 2.036132 -0.160234
v -0.052944 2.036132 -0.131453
v -0.045188 2.036132 -0.151804
v -0.052944 0.036132 -0.244329
v -0.026464 0.036132 -0.273290
v -0.045188 0.036132 -0.264807
v -0.026464 0.596468 0.272335
v -0.052944 0.596468 0.245578
v -0.045188 0.596468 0.264498
v -0.026464 0.596468 0.091003
v -0.052944 0.596468 0.119859
v -0.045188 0.596468 0.099455
v 0.026464 2.036132 -0.026880
v 0.052944 2.036132 -0.053649
v 0.045188 2.036132 -0.034721
v 0.052944 0.036132 0.245589
v 0.026464 0.036132 0.272335
v 0.045188 0.036132 0.264502
v 0.052944 2.036132 -0.131453
v 0.026464 2.036132 -0.160234
v 0.045188 2.036132 -0.151804
v 0.026464 0.036132 -0.273290
v 0.052944 0.036132 -0.244329
v 0.045188 0.036132 -0.264807
v 0.052944 0.596468 0.245578
v 0.026464 0.596468 0.272335
v 0.045188 0.596468 0.264498
v 0.052944 0.596468 0.119859
v 0.026464 0.596468 0.091003
v 0.045188 0.596468 0.099455
v -0.200010 0.036132 0.408478
v -0.170710 0.036132 0.439934
v -0.099974 0.036132 0.452964
v -0.170710 0.036132 -0.440443
v -0.200010 0.036132 -0.406382
v -0.099974 0.036132 -0.454552
v 0.099974 0.036132 0.452964
v 0.170710 0.036132 0.439934
v 0.200010 0.036132 0.408478
v 0.170710 0.036132 -0.440443
v 0.099974 0.036132 -0.454552
v 0.200010 0.036132 -0.406382
v -0.200010 0.000000 0.408478
v -0.170710 0.000000 0.439934
v -0.099974 0.000000 0.452964
v -0.170710 0.000000 -0.440443
v -0.200010 0.000000 -0.406382
v -0.099974 0.000000 -0.454552
v 0.099974 0.000000 0.452964
v 0.170710 0.000000 0.439934
v 0.200010 0.000000 0.408478
v 0.170710 0.000000 -0.440443
v 0.099974 0.000000 -0.454552
v 0.200010 -0.000000 -0.406382
v -0.177660 2.036132 0.053439
v -0.088802 2.036132 0.118501
v -0.151634 2.036132 0.099445
v -0.088802 2.036132 -0.205622
v -0.177660 2.036132 -0.135670
v -0.151634 2.036132 -0.185133
v 0.088802 2.036132 0.118501
v 0.177660 2.036132 0.053439
v 0.151634 2.036132 0.099445
v 0.177660 2.036132 -0.135670
v 0.088802 2.036132 -0.205622
v 0.151634 2.036132 -0.185133
v -0.177660 2.049544 0.053439
v -0.088802 2.049544 0.118501
v -0.151634 2.049544 0.099445
v -0.088802 2.049544 -0.205622
v -0.177660 2.049544 -0.135670
v -0.151634 2.049544 -0.185133
v 0.088802 2.049544 0.118501
v 0.177660 2.049544 0.053439
v 0.151634 2.049544 0.099445
v 0.177660 2.049544 -0.135670
v 0.088802 2.049544 -0.205622
v 0.151634 2.049544 -0.185133
v -1.360053 1.951472 -0.272432
v 1.360053 1.951472 -0.272432
v -1.360053 1.925074 -0.264681
v 1.360053 1.925074 -0.264681
v -1.360053 1.907058 -0.243889
v 1.360053 1.907058 -0.243889
v -1.360053 1.903142 -0.216657
v 1.360053 1.903142 -0.216657
v -1.360053 1.914571 -0.191632
v 1.360053 1.914571 -0.191632
v -1.360053 1.937716 -0.176758
v 1.360053 1.937716 -0.176758
v -1.360053 1.965228 -0.176758
v 1.360053 1.965228 -0.176758
v -1.360053 1.988372 -0.191632
v 1.360053 1.988372 -0.191632
v -1.360053 1.999801 -0.216657
v 1.360053 1.999801 -0.216657
v -1.360053 1.995886 -0.243889
v 1.360053 1.995886 -0.243889
v -1.360053 1.977869 -0.264681
v 1.360053 1.977869 -0.264681
v -0.906702 1.951472 -0.272432
v -0.453351 1.951472 -0.272432
v 0.000000 1.951472 -0.272432
v 0.453351 1.951472 -0.272432
v 0.906702 1.951472 -0.272432
v 0.906702 1.925074 -0.264681
v 0.453351 1.925074 -0.264681
v 0.000000 1.925074 -0.264681
v -0.453351 1.925074 -0.264681
v -0.906702 1.925074 -0.264681
v 0.906702 1.907058 -0.243889
v 0.453351 1.907058 -0.243889
v 0.000000 1.907058 -0.243889
v -0.453351 1.907058 -0.243889
v -0.906702 1.907058 -0.243889
v 0.906702 1.903142 -0.216657
v 0.453351 1.903142 -0.216657
v 0.000000 1.903142 -0.216657
v -0.453351 1.903142 -0.216657
v -0.906702 1.903142 -0.216657
v 0.906702 1.914571 -0.191632
v 0.453351 1.914571 -0.191632
v 0.000000 1.914571 -0.191632
v -0.453351 1.914571 -0.191632
v -0.906702 1.914571 -0.191632
v 0.906702 1.937716 -0.176758
v 0.453351 1.937716 -0.176758
v 0.000000 1.937716 -0.176758
v -0.453351 1.937716 -0.176758
v -0.906702 1.937716 -0.176758
v 0.906702 1.965228 -0.176758
v 0.453351 1.965228 -0.176758
v 0.000000 1.965228 -0.176758
v -0.453351 1.965228 -0.176758
v -0.906702 1.965228 -0.176758
v 0.906702 1.988372 -0.191632
v 0.453351 1.988372 -0.191632
v 0.000000 1.988372 -0.191632
v -0.453351 1.988372 -0.191632
v -0.906702 1.988372 -0.191632
v 0.906702 1.999801 -0.216657
v 0.453351 1.999801 -0.216657
v 0.000000 1.999801 -0.216657
v -0.453351 1.999801 -0.216657
v -0.906702 1.999801 -0.216657
v 0.906702 1.995886 -0.243889
v 0.453351 1.995886 -0.243889
v 0.000000 1.995886 -0.243889
v -0.453351 1.995886 -0.243889
v -0.906702 1.995886 -0.243889
v 0.906702 1.977869 -0.264681
v 0.453351 1.977869 -0.264681
v 0.000000 1.977869 -0.264681
v -0.453351 1.977869 -0.264681
v -0.906702 1.977869 -0.264681
v -1.360053 1.620065 -0.145423
v 1.360053 1.620065 -0.145423
v -1.360053 1.611378 -0.142872
v 1.360053 1.611378 -0.142872
v -1.360053 1.605449 -0.136030
v 1.360053 1.605449 -0.136030
v -1.360053 1.604161 -0.127068
v 1.360053 1.604161 -0.127068
v -1.360053 1.607922 -0.118833
v 1.360053 1.607922 -0.118833
v -1.360053 1.615538 -0.113938
v 1.360053 1.615538 -0.113938
v -1.360053 1.624592 -0.113938
v 1.360053 1.624592 -0.113938
v -1.360053 1.632209 -0.118833
v 1.360053 1.632209 -0.118833
v -1.360053 1.635970 -0.127068
v 1.360053 1.635970 -0.127068
v -1.360053 1.634681 -0.136030
v 1.360053 1.634681 -0.136030
v -1.360053 1.628752 -0.142872
v 1.360053 1.628752 -0.142872
v -0.906702 1.620065 -0.145423
v -0.453351 1.620065 -0.145423
v -0.000000 1.620065 -0.145423
v 0.453351 1.620065 -0.145423
v 0.906702 1.620065 -0.145423
v 0.906702 1.611378 -0.142872
v 0.453351 1.611378 -0.142872
v -0.000000 1.611378 -0.142872
v -0.453351 1.611378 -0.142872
v -0.906702 1.611378 -0.142872
v 0.906702 1.605449 -0.136030
v 0.453351 1.605449 -0.136030
v -0.000000 1.605449 -0.136030
v -0.453351 1.605449 -0.136030
v -0.906702 1.605449 -0.136030
v 0.906702 1.604161 -0.127068
v 0.453351 1.604161 -0.127068
v -0.000000 1.604161 -0.127068
v -0.453351 1.604161 -0.127068
v -0.906702 1.604161 -0.127068
v 0.906702 1.607922 -0.118833
v 0.453351 1.607922 -0.118833
v -0.000000 1.607922 -0.118833
v -0.453351 1.607922 -0.118833
v -0.906702 1.607922 -0.118833
v 0.906702 1.615538 -0.113938
v 0.453351 1.615538 -0.113938
v -0.000000 1.615538 -0.113938
v -0.453351 1.615538 -0.113938
v -0.906702 1.615538 -0.113938
v 0.906702 1.624592 -0.113938
v 0.453351 1.624592 -0.113938
v -0.000000 1.624592 -0.113938
v -0.453351 1.624592 -0.113938
v -0.906702 1.624592 -0.113938
v 0.906702 1.632209 -0.118833
v 0.453351 1.632209 -0.118833
v -0.000000 1.632209 -0.118833
v -0.453351 1.632209 -0.118833
v -0.906702 1.632209 -0.118833
v 0.906702 1.635970 -0.127068
v 0.453351 1.635970 -0.127068
v -0.000000 1.635970 -0.127068
v -0.453351 1.635970 -0.127068
v -0.906702 1.635970 -0.127068
v 0.906702 1.634681 -0.136030
v 0.453351 1.634681 -0.136030
v -0.000000 1.634681 -0.136030
v -0.453351 1.634681 -0.136030
v -0.906702 1.634681 -0.136030
v 0.906702 1.628752 -0.142872
v 0.453351 1.628752 -0.142872
v -0.000000 1.628752 -0.142872
v -0.453351 1.628752 -0.142872
v -0.906702 1.628752 -0.142872
v -1.360053 1.422461 -0.108942
v 1.360053 1.422461 -0.108942
v -1.360053 1.413774 -0.106392
v 1.360053 1.413774 -0.106392
v -1.360053 1.407845 -0.099549
v 1.360053 1.407845 -0.099549
v -1.360053 1.406557 -0.090588
v 1.360053 1.406557 -0.090588
v -1.360053 1.410318 -0.082352
v 1.360053 1.410318 -0.082352
v -1.360053 1.417934 -0.077457
v 1.360053 1.417934 -0.077457
v -1.360053 1.426988 -0.077457
v 1.360053 1.426988 -0.077457
v -1.360053 1.434605 -0.082352
v 1.360053 1.434605 -0.082352
v -1.360053 1.438366 -0.090588
v 1.360053 1.438366 -0.090588
v -1.360053 1.437077 -0.099549
v 1.360053 1.437077 -0.099549
v -1.360053 1.431148 -0.106392
v 1.360053 1.431148 -0.106392
v -0.906702 1.422461 -0.108942
v -0.453351 1.422461 -0.108942
v -0.000000 1.422461 -0.108942
v 0.453351 1.422461 -0.108942
v 0.906702 1.422461 -0.108942
v 0.906702 1.413774 -0.106392
v 0.453351 1.413774 -0.106392
v -0.000000 1.413774 -0.106392
v -0.453351 1.413774 -0.106392
v -0.906702 1.413774 -0.106392
v 0.906702 1.407845 -0.099549
v 0.453351 1.407845 -0.099549
v -0.000000 1.407845 -0.099549
v -0.453351 1.407845 -0.099549
v -0.906702 1.407845 -0.099549
v 0.906702 1.406557 -0.090588
v 0.453351 1.406557 -0.090588
v -0.000000 1.406557 -0.090588
v -0.453351 1.406557 -0.090588
v -0.906702 1.406557 -0.090588
v 0.906702 1.410318 -0.082352
v 0.453351 1.410318 -0.082352
v -0.000000 1.410318 -0.082352
v -0.453351 1.410318 -0.082352
v -0.906702 1.410318 -0.082352
v 0.906702 1.417934 -0.077457
v 0.453351 1.417934 -0.077457
v -0.000000 1.417934 -0.077457
v -0.453351 1.417934 -0.077457
v -0.906702 1.417934 -0.077457
v 0.906702 1.426988 -0.077457
v 0.453351 1.426988 -0.077457
v -0.000000 1.426988 -0.077457
v -0.453351 1.426988 -0.077457
v -0.906702 1.426988 -0.077457
v 0.906702 1.434605 -0.082352
v 0.453351 1.434605 -0.082352
v -0.000000 1.434605 -0.082352
v -0.453351 1.434605 -0.082352
v -0.906702 1.434605 -0.082352
v 0.906702 1.438366 -0.090588
v 0.453351 1.438366 -0.090588
v -0.000000 1.438366 -0.090588
v -0.453351 1.438366 -0.090588
v -0.906702 1.438366 -0.090588
v 0.906702 1.437077 -0.099549
v 0.453351 1.437077 -0.099549
v -0.000000 1.437077 -0.099549
v -0.453351 1.437077 -0.099549
v -0.906702 1.437077 -0.099549
v 0.906702 1.431148 -0.106392
v 0.453351 1.431148 -0.106392
v -0.000000 1.431148 -0.106392
v -0.453351 1.431148 -0.106392
v -0.906702 1.431148 -0.106392
v -1.360053 1.227898 -0.066382
v 1.360053 1.227898 -0.066382
v -1.360053 1.219210 -0.063831
v 1.360053 1.219210 -0.063831
v -1.360053 1.213281 -0.056988
v 1.360053 1.213281 -0.056988
v -1.360053 1.211993 -0.048027
v 1.360053 1.211993 -0.048027
v -1.360053 1.215754 -0.039791
v 1.360053 1.215754 -0.039791
v -1.360053 1.223371 -0.034896
v 1.360053 1.223371 -0.034896
v -1.360053 1.232424 -0.034896
v 1.360053 1.232424 -0.034896
v -1.360053 1.240041 -0.039791
v 1.360053 1.240041 -0.039791
v -1.360053 1.243802 -0.048027
v 1.360053 1.243802 -0.048027
v -1.360053 1.242514 -0.056988
v 1.360053 1.242514 -0.056988
v -1.360053 1.236585 -0.063831
v 1.360053 1.236585 -0.063831
v -0.906702 1.227898 -0.066382
v -0.453351 1.227898 -0.066382
v -0.000000 1.227898 -0.066382
v 0.453351 1.227898 -0.066382
v 0.906702 1.227898 -0.066382
v 0.906702 1.219210 -0.063831
v 0.453351 1.219210 -0.063831
v -0.000000 1.219210 -0.063831
v -0.453351 1.219210 -0.063831
v -0.906702 1.219210 -0.063831
v 0.906702 1.213281 -0.056988
v 0.453351 1.213281 -0.056988
v -0.000000 1.213281 -0.056988
v -0.453351 1.213281 -0.056988
v -0.906702 1.213281 -0.056988
v 0.906702 1.211993 -0.048027
v 0.453351 1.211993 -0.048027
v -0.000000 1.211993 -0.048027
v -0.453351 1.211993 -0.048027
v -0.906702 1.211993 -0.048027
v 0.906702 1.215754 -0.039791
v 0.453351 1.215754 -0.039791
v -0.000000 1.215754 -0.039791
v -0.453351 1.215754 -0.039791
v -0.906702 1.215754 -0.039791
v 0.906702 1.223371 -0.034896
v 0.453351 1.223371 -0.034896
v -0.000000 1.223371 -0.034896
v -0.453351 1.223371 -0.034896
v -0.906702 1.223371 -0.034896
v 0.906702 1.232424 -0.034896
v 0.453351 1.232424 -0.034896
v -0.000000 1.232424 -0.034896
v -0.453351 1.232424 -0.034896
v -0.906702 1.232424 -0.034896
v 0.906702 1.240041 -0.039791
v 0.453351 1.240041 -0.039791
v -0.000000 1.240041 -0.039791
v -0.453351 1.240041 -0.039791
v -0.906702 1.240041 -0.039791
v 0.906702 1.243802 -0.048027
v 0.453351 1.243802 -0.048027
v -0.000000 1.243802 -0.048027
v -0.453351 1.243802 -0.048027
v -0.906702 1.243802 -0.048027
v 0.906702 1.242514 -0.056988
v 0.453351 1.242514 -0.056988
v -0.000000 1.242514 -0.056988
v -0.453351 1.242514 -0.056988
v -0.906702 1.242514 -0.056988
v 0.906702 1.236585 -0.063831
v 0.453351 1.236585 -0.063831
v -0.000000 1.236585 -0.063831
v -0.453351 1.236585 -0.063831
v -0.906702 1.236585 -0.063831
v -1.360053 1.015093 -0.029901
v 1.360053 1.015093 -0.029901
v -1.360053 1.006406 -0.027350
v 1.360053 1.006406 -0.027350
v -1.360053 1.000477 -0.020508
v 1.360053 1.000477 -0.020508
v -1.360053 0.999189 -0.011546
v 1.360053 0.999189 -0.011546
v -1.360053 1.002950 -0.003310
v 1.360053 1.002950 -0.003310
v -1.360053 1.010566 0.001584
v 1.360053 1.010566 0.001584
v -1.360053 1.019620 0.001584
v 1.360053 1.019620 0.001584
v -1.360053 1.027237 -0.003310
v 1.360053 1.027237 -0.003310
v -1.360053 1.030998 -0.011546
v 1.360053 1.030998 -0.011546
v -1.360053 1.029709 -0.020508
v 1.360053 1.029709 -0.020508
v -1.360053 1.023780 -0.027350
v 1.360053 1.023780 -0.027350
v -0.906702 1.015093 -0.029901
v -0.453351 1.015093 -0.029901
v -0.000000 1.015093 -0.029901
v 0.453351 1.015093 -0.029901
v 0.906702 1.015093 -0.029901
v 0.906702 1.006406 -0.027350
v 0.453351 1.006406 -0.027350
v -0.000000 1.006406 -0.027350
v -0.453351 1.006406 -0.027350
v -0.906702 1.006406 -0.027350
v 0.906702 1.000477 -0.020508
v 0.453351 1.000477 -0.020508
v -0.000000 1.000477 -0.020508
v -0.453351 1.000477 -0.020508
v -0.906702 1.000477 -0.020508
v 0.906702 0.999189 -0.011546
v 0.453351 0.999189 -0.011546
v -0.000000 0.999189 -0.011546
v -0.453351 0.999189 -0.011546
v -0.906702 0.999189 -0.011546
v 0.906702 1.002950 -0.003310
v 0.453351 1.002950 -0.003310
v -0.000000 1.002950 -0.003310
v -0.453351 1.002950 -0.003310
v -0.906702 1.002950 -0.003310
v 0.906702 1.010566 0.001584
v 0.453351 1.010566 0.001584
v -0.000000 1.010566 0.001584
v -0.453351 1.010566 0.001584
v -0.906702 1.010566 0.001584
v 0.906702 1.019620 0.001584
v 0.453351 1.019620 0.001584
v -0.000000 1.019620 0.001584
v -0.453351 1.019620 0.001584
v -0.906702 1.019620 0.001584
v 0.906702 1.027237 -0.003310
v 0.453351 1.027237 -0.003310
v -0.000000 1.027237 -0.003310
v -0.453351 1.027237 -0.003310
v -0.906702 1.027237 -0.003310
v 0.906702 1.030998 -0.011546
v 0.453351 1.030998 -0.011546
v -0.000000 1.030998 -0.011546
v -0.453351 1.030998 -0.011546
v -0.906702 1.030998 -0.011546
v 0.906702 1.029709 -0.020508
v 0.453351 1.029709 -0.020508
v -0.000000 1.029709 -0.020508
v -0.453351 1.029709 -0.020508
v -0.906702 1.029709 -0.020508
v 0.906702 1.023780 -0.027350
v 0.453351 1.023780 -0.027350
v -0.000000 1.023780 -0.027350
v -0.453351 1.023780 -0.027350
v -0.906702 1.023780 -0.027350
vn -0.9252 -0.0000 0.3794
vn -0.3860 -0.0000 0.9225
vn -0.9328 -0.0620 -0.3550
vn -0.4059 -0.1571 -0.9003
vn -0.9224 0.0786 0.3781
vn -0.3793 0.1883 0.9059
vn -0.9111 0.2247 -0.3457
vn -0.3545 0.5097 -0.7840
vn 0.3860 -0.0000 0.9225
vn 0.9252 -0.0000 0.3794
vn 0.4059 -0.1571 -0.9003
vn 0.9328 -0.0620 -0.3550
vn 0.3793 0.1883 0.9059
vn 0.9224 0.0786 0.3781
vn 0.3545 0.5097 -0.7840
vn 0.9111 0.2247 -0.3457
vn -0.0000 -1.0000 -0.0000
vn -1.0000 -0.0000 -0.0000
vn -0.0000 0.2035 0.9791
vn -0.0000 -0.0000 1.0000
vn -0.0000 1.0000 -0.0000
vn -0.0000 -0.1719 -0.9851
vn -0.0000 0.5451 -0.8384
vn 1.0000 -0.0000 -0.0000
vn -0.1812 -0.0000 0.9835
vn 0.7317 -0.0000 0.6816
vn -0.7581 -0.0000 -0.6521
vn 0.1956 -0.0000 -0.9807
vn -0.1956 -0.0000 -0.9807
vn -0.0000 -0.0000 -1.0000
vn -0.7317 -0.0000 0.6816
vn 0.7581 -0.0000 -0.6521
vn 0.1812 -0.0000 0.9835
vn -0.2902 -0.0000 0.9570
vn -0.8850 -0.0000 -0.4656
vn 0.8704 -0.0000 0.4924
vn 0.3100 -0.0000 -0.9507
vn -0.3100 -0.0000 -0.9507
vn 0.8850 -0.0000 -0.4656
vn -0.8704 -0.0000 0.4924
vn 0.2902 -0.0000 0.9570
vn -0.0000 -0.2817 -0.9595
vn -0.0000 -0.7557 -0.6549
vn -0.0000 -0.9898 -0.1423
vn -0.0000 -0.9096 0.4154
vn -0.0000 -0.5406 0.8413
vn -0.0000 0.5406 0.8413
vn -0.0000 0.9096 0.4154
vn -0.0000 0.9898 -0.1423
vn -0.0000 0.7557 -0.6549
vn -0.0000 0.2817 -0.9595
vt 0.500000 0.147559
vt 1.000000 0.049020
vt 1.000000 0.004786
vt 0.499729 0.000000
vt 1.000000 0.000000
vt 0.500000 0.000000
vt 0.500000 0.840865
vt 0.000000 0.784179
vt 0.000331 0.978929
vt 0.500000 1.000000
vt 0.000000 1.000000
vt 0.000000 0.200732
vt 0.000000 0.019598
vt 0.000000 0.000000
vt 1.000000 0.946921
vt 0.997694 0.994818
vt 1.000000 1.000000
vt 1.000000 0.049020
vt 0.000331 0.978929
vt 0.000000 0.200732
vt 1.000000 0.916667
vt 0.909091 1.000000
vt 0.909091 0.916667
vt 0.818182 1.000000
vt 0.818182 0.916667
vt 0.727273 1.000000
vt 0.727273 0.916667
vt 0.636364 1.000000
vt 0.636363 0.916667
vt 0.545454 1.000000
vt 0.545454 0.916667
vt 0.454545 1.000000
vt 0.454545 0.916667
vt 0.363636 1.000000
vt 0.363636 0.916667
vt 0.272727 1.000000
vt 0.272727 0.916667
vt 0.181818 1.000000
vt 0.181818 0.916667
vt 0.379754 0.451901
vt 0.250000 0.490000
vt 0.120246 0.451901
vt 0.031688 0.349700
vt 0.012443 0.215844
vt 0.068620 0.092833
vt 0.182384 0.019722
vt 0.317616 0.019722
vt 0.431380 0.092833
vt 0.487557 0.215844
vt 0.468312 0.349700
vt 0.090909 1.000000
vt 0.090909 0.916667
vt -0.000000 1.000000
vt -0.000000 0.916667
vt 0.750000 0.490000
vt 0.879754 0.451901
vt 0.968312 0.349700
vt 0.987557 0.215844
vt 0.931380 0.092833
vt 0.817616 0.019722
vt 0.682384 0.019722
vt 0.568620 0.092833
vt 0.512443 0.215844
vt 0.531688 0.349700
vt 0.620246 0.451901
vt 0.090909 0.500000
vt 0.090909 0.583333
vt -0.000000 0.583333
vt -0.000000 0.500000
vt 0.090909 0.666667
vt -0.000000 0.666667
vt 0.090909 0.750000
vt -0.000000 0.750000
vt 0.090909 0.833333
vt -0.000000 0.833333
vt 0.181818 0.500000
vt 0.181818 0.583333
vt 0.181818 0.666667
vt 0.181818 0.750000
vt 0.181818 0.833333
vt 0.272727 0.500000
vt 0.272727 0.583333
vt 0.272727 0.666667
vt 0.272727 0.750000
vt 0.272727 0.833333
vt 0.363636 0.500000
vt 0.363636 0.583333
vt 0.363636 0.666667
vt 0.363636 0.750000
vt 0.363636 0.833333
vt 0.454545 0.500000
vt 0.454545 0.583333
vt 0.454545 0.666667
vt 0.454545 0.750000
vt 0.454545 0.833333
vt 0.545454 0.500000
vt 0.545454 0.583333
vt 0.545454 0.666667
vt 0.545454 0.750000
vt 0.545454 0.833333
vt 0.636364 0.500000
vt 0.636364 0.583333
vt 0.636364 0.666667
vt 0.636364 0.750000
vt 0.636364 0.833333
vt 0.727273 0.500000
vt 0.727273 0.583333
vt 0.727273 0.666667
vt 0.727273 0.750000
vt 0.727273 0.833333
vt 0.818182 0.500000
vt 0.818182 0.583333
vt 0.818182 0.666667
vt 0.818182 0.750000
vt 0.818182 0.833333
vt 0.909091 0.500000
vt 0.909091 0.583333
vt 0.909091 0.666667
vt 0.909091 0.750000
vt 0.909091 0.833333
vt 1.000000 0.500000
vt 1.000000 0.583333
vt 1.000000 0.666667
vt 1.000000 0.750000
vt 1.000000 0.833333
s 0
usemtl waterfront_railing
f 14/1/1 5/2/1 6/3/1 15/4/1
f 15/4/2 6/3/2 4/5/2 13/6/2
f 17/7/3 8/8/3 9/9/3 18/10/3
f 18/10/4 9/9/4 7/11/4 16/10/4
f 1/12/5 14/1/5 15/4/5 3/13/5
f 3/13/6 15/4/6 13/6/6 2/14/6
f 10/15/7 17/7/7 18/10/7 12/16/7
f 12/16/8 18/10/8 16/10/8 11/17/8
f 32/6/9 23/5/9 24/3/9 33/4/9
f 33/4/10 24/3/10 22/18/10 31/1/10
f 35/10/11 26/11/11 27/19/11 36/10/11
f 36/10/12 27/19/12 25/8/12 34/7/12
f 19/14/13 32/6/13 33/4/13 21/13/13
f 21/13/14 33/4/14 31/1/14 20/20/14
f 28/17/15 35/10/15 36/10/15 30/16/15
f 30/16/16 36/10/16 34/7/16 29/15/16
f 9/9/17 8/8/17 65/8/17 66/9/17
f 1/12/18 8/8/18 17/7/18 14/1/18
f 2/14/19 13/6/19 32/6/19 19/14/19
f 13/6/20 4/5/20 23/5/20 32/6/20
f 14/1/18 17/7/18 10/15/18 5/2/18
f 24/3/21 23/5/21 43/5/21 44/3/21
f 16/10/22 7/11/22 26/11/22 35/10/22
f 11/17/23 16/10/23 35/10/23 28/17/23
f 20/20/24 31/1/24 34/7/24 25/8/24
f 31/1/24 22/18/24 29/15/24 34/7/24
f 28/17/21 30/16/21 46/16/21 47/17/21
f 29/15/21 22/18/21 45/18/21 48/15/21
f 23/5/21 4/5/21 39/5/21 43/5/21
f 5/2/21 10/15/21 41/15/21 37/2/21
f 11/17/21 28/17/21 47/17/21 42/17/21
f 4/5/21 6/3/21 38/3/21 39/5/21
f 12/16/21 11/17/21 42/17/21 40/16/21
f 22/18/21 24/3/21 44/3/21 45/18/21
f 30/16/21 29/15/21 48/15/21 46/16/21
f 6/3/21 5/2/21 37/2/21 38/3/21
f 10/15/21 12/16/21 40/16/21 41/15/21
f 39/5/25 38/3/25 50/3/25 51/5/25
f 43/5/20 39/5/20 51/5/20 55/5/20
f 45/18/26 44/3/26 56/3/26 57/18/26
f 41/15/27 40/16/27 52/16/27 53/15/27
f 37/2/18 41/15/18 53/15/18 49/2/18
f 47/17/28 46/16/28 58/16/28 59/17/28
f 40/16/29 42/17/29 54/17/29 52/16/29
f 42/17/30 47/17/30 59/17/30 54/17/30
f 38/3/31 37/2/31 49/2/31 50/3/31
f 46/16/32 48/15/32 60/15/32 58/16/32
f 44/3/33 43/5/33 55/5/33 56/3/33
f 48/15/24 45/18/24 57/18/24 60/15/24
f 2/14/17 19/14/17 67/14/17 62/14/17
f 27/19/17 26/11/17 71/11/17 72/19/17
f 20/20/17 25/8/17 70/8/17 68/20/17
f 3/13/17 2/14/17 62/14/17 63/13/17
f 21/13/17 20/20/17 68/20/17 69/13/17
f 1/12/17 3/13/17 63/13/17 61/12/17
f 26/11/17 7/11/17 64/11/17 71/11/17
f 19/14/17 21/13/17 69/13/17 67/14/17
f 8/8/17 1/12/17 61/12/17 65/8/17
f 7/11/17 9/9/17 66/9/17 64/11/17
f 25/8/17 27/19/17 72/19/17 70/8/17
f 63/13/34 62/14/34 74/14/34 75/13/34
f 62/14/20 67/14/20 79/14/20 74/14/20
f 66/9/35 65/8/35 77/8/35 78/9/35
f 69/13/36 68/20/36 80/20/36 81/13/36
f 72/19/37 71/11/37 83/11/37 84/19/37
f 68/20/24 70/8/24 82/8/24 80/20/24
f 64/11/38 66/9/38 78/9/38 76/11/38
f 71/11/30 64/11/30 76/11/30 83/11/30
f 70/8/39 72/19/39 84/19/39 82/8/39
f 61/12/40 63/13/40 75/13/40 73/12/40
f 65/8/18 61/12/18 73/12/18 77/8/18
f 67/14/41 69/13/41 81/13/41 79/14/41
f 77/8/21 73/12/21 75/13/21 74/14/21 79/14/21 81/13/21 80/20/21 82/8/21 84/19/21 83/11/21 76/11/21 78/9/21
f 111/21/42 86/17/42 88/22/42 112/23/42
f 112/23/43 88/22/43 90/24/43 117/25/43
f 117/25/44 90/24/44 92/26/44 122/27/44
f 122/27/45 92/26/45 94/28/45 127/29/45
f 127/29/46 94/28/46 96/30/46 132/31/46
f 132/31/20 96/30/20 98/32/20 137/33/20
f 137/33/47 98/32/47 100/34/47 142/35/47
f 142/35/48 100/34/48 102/36/48 147/37/48
f 147/37/49 102/36/49 104/38/49 152/39/49
f 88/40/24 86/41/24 106/42/24 104/43/24 102/44/24 100/45/24 98/46/24 96/47/24 94/48/24 92/49/24 90/50/24
f 152/39/50 104/38/50 106/51/50 157/52/50
f 157/52/51 106/51/51 86/53/51 111/54/51
f 85/55/18 87/56/18 89/57/18 91/58/18 93/59/18 95/60/18 97/61/18 99/62/18 101/63/18 103/64/18 105/65/18
f 105/66/51 161/67/51 107/68/51 85/69/51
f 161/67/51 160/70/51 108/71/51 107/68/51
f 160/70/51 159/72/51 109/73/51 108/71/51
f 159/72/51 158/74/51 110/75/51 109/73/51
f 158/74/51 157/52/51 111/54/51 110/75/51
f 103/76/50 156/77/50 161/67/50 105/66/50
f 156/77/50 155/78/50 160/70/50 161/67/50
f 155/78/50 154/79/50 159/72/50 160/70/50
f 154/79/50 153/80/50 158/74/50 159/72/50
f 153/80/50 152/39/50 157/52/50 158/74/50
f 101/81/49 151/82/49 156/77/49 103/76/49
f 151/82/49 150/83/49 155/78/49 156/77/49
f 150/83/49 149/84/49 154/79/49 155/78/49
f 149/84/49 148/85/49 153/80/49 154/79/49
f 148/85/49 147/37/49 152/39/49 153/80/49
f 99/86/48 146/87/48 151/82/48 101/81/48
f 146/87/48 145/88/48 150/83/48 151/82/48
f 145/88/48 144/89/48 149/84/48 150/83/48
f 144/89/48 143/90/48 148/85/48 149/84/48
f 143/90/48 142/35/48 147/37/48 148/85/48
f 97/91/47 141/92/47 146/87/47 99/86/47
f 141/92/47 140/93/47 145/88/47 146/87/47
f 140/93/47 139/94/47 144/89/47 145/88/47
f 139/94/47 138/95/47 143/90/47 144/89/47
f 138/95/47 137/33/47 142/35/47 143/90/47
f 95/96/20 136/97/20 141/92/20 97/91/20
f 136/97/20 135/98/20 140/93/20 141/92/20
f 135/98/20 134/99/20 139/94/20 140/93/20
f 134/99/20 133/100/20 138/95/20 139/94/20
f 133/100/20 132/31/20 137/33/20 138/95/20
f 93/101/46 131/102/46 136/97/46 95/96/46
f 131/102/46 130/103/46 135/98/46 136/97/46
f 130/103/46 129/104/46 134/99/46 135/98/46
f 129/104/46 128/105/46 133/100/46 134/99/46
f 128/105/46 127/29/46 132/31/46 133/100/46
f 91/106/45 126/107/45 131/102/45 93/101/45
f 126/107/45 125/108/45 130/103/45 131/102/45
f 125/108/45 124/109/45 129/104/45 130/103/45
f 124/109/45 123/110/45 128/105/45 129/104/45
f 123/110/45 122/27/45 127/29/45 128/105/45
f 89/111/44 121/112/44 126/107/44 91/106/44
f 121/112/44 120/113/44 125/108/44 126/107/44
f 120/113/44 119/114/44 124/109/44 125/108/44
f 119/114/44 118/115/44 123/110/44 124/109/44
f 118/115/44 117/25/44 122/27/44 123/110/44
f 87/116/43 116/117/43 121/112/43 89/111/43
f 116/117/43 115/118/43 120/113/43 121/112/43
f 115/118/43 114/119/43 119/114/43 120/113/43
f 114/119/43 113/120/43 118/115/43 119/114/43
f 113/120/43 112/23/43 117/25/43 118/115/43
f 85/121/42 107/122/42 116/117/42 87/116/42
f 107/122/42 108/123/42 115/118/42 116/117/42
f 108/123/42 109/124/42 114/119/42 115/118/42
f 109/124/42 110/125/42 113/120/42 114/119/42
f 110/125/42 111/21/42 112/23/42 113/120/42
f 188/21/42 163/17/42 165/22/42 189/23/42
f 189/23/43 165/22/43 167/24/43 194/25/43
f 194/25/44 167/24/44 169/26/44 199/27/44
f 199/27/45 169/26/45 171/28/45 204/29/45
f 204/29/46 171/28/46 173/30/46 209/31/46
f 209/31/20 173/30/20 175/32/20 214/33/20
f 214/33/47 175/32/47 177/34/47 219/35/47
f 219/35/48 177/34/48 179/36/48 224/37/48
f 224/37/49 179/36/49 181/38/49 229/39/49
f 165/40/24 163/41/24 183/42/24 181/43/24 179/44/24 177/45/24 175/46/24 173/47/24 171/48/24 169/49/24 167/50/24
f 229/39/50 181/38/50 183/51/50 234/52/50
f 234/52/51 183/51/51 163/53/51 188/54/51
f 162/55/18 164/56/18 166/57/18 168/58/18 170/59/18 172/60/18 174/61/18 176/62/18 178/63/18 180/64/18 182/65/18
f 182/66/51 238/67/51 184/68/51 162/69/51
f 238/67/51 237/70/51 185/71/51 184/68/51
f 237/70/51 236/72/51 186/73/51 185/71/51
f 236/72/51 235/74/51 187/75/51 186/73/51
f 235/74/51 234/52/51 188/54/51 187/75/51
f 180/76/50 233/77/50 238/67/50 182/66/50
f 233/77/50 232/78/50 237/70/50 238/67/50
f 232/78/50 231/79/50 236/72/50 237/70/50
f 231/79/50 230/80/50 235/74/50 236/72/50
f 230/80/50 229/39/50 234/52/50 235/74/50
f 178/81/49 228/82/49 233/77/49 180/76/49
f 228/82/49 227/83/49 232/78/49 233/77/49
f 227/83/49 226/84/49 231/79/49 232/78/49
f 226/84/49 225/85/49 230/80/49 231/79/49
f 225/85/49 224/37/49 229/39/49 230/80/49
f 176/86/48 223/87/48 228/82/48 178/81/48
f 223/87/48 222/88/48 227/83/48 228/82/48
f 222/88/48 221/89/48 226/84/48 227/83/48
f 221/89/48 220/90/48 225/85/48 226/84/48
f 220/90/48 219/35/48 224/37/48 225/85/48
f 174/91/47 218/92/47 223/87/47 176/86/47
f 218/92/47 217/93/47 222/88/47 223/87/47
f 217/93/47 216/94/47 221/89/47 222/88/47
f 216/94/47 215/95/47 220/90/47 221/89/47
f 215/95/47 214/33/47 219/35/47 220/90/47
f 172/96/20 213/97/20 218/92/20 174/91/20
f 213/97/20 212/98/20 217/93/20 218/92/20
f 212/98/20 211/99/20 216/94/20 217/93/20
f 211/99/20 210/100/20 215/95/20 216/94/20
f 210/100/20 209/31/20 214/33/20 215/95/20
f 170/101/46 208/102/46 213/97/46 172/96/46
f 208/102/46 207/103/46 212/98/46 213/97/46
f 207/103/46 206/104/46 211/99/46 212/98/46
f 206/104/46 205/105/46 210/100/46 211/99/46
f 205/105/46 204/29/46 209/31/46 210/100/46
f 168/106/45 203/107/45 208/102/45 170/101/45
f 203/107/45 202/108/45 207/103/45 208/102/45
f 202/108/45 201/109/45 206/104/45 207/103/45
f 201/109/45 200/110/45 205/105/45 206/104/45
f 200/110/45 199/27/45 204/29/45 205/105/45
f 166/111/44 198/112/44 203/107/44 168/106/44
f 198/112/44 197/113/44 202/108/44 203/107/44
f 197/113/44 196/114/44 201/109/44 202/108/44
f 196/114/44 195/115/44 200/110/44 201/109/44
f 195/115/44 194/25/44 199/27/44 200/110/44
f 164/116/43 193/117/43 198/112/43 166/111/43
f 193/117/43 192/118/43 197/113/43 198/112/43
f 192/118/43 191/119/43 196/114/43 197/113/43
f 191/119/43 190/120/43 195/115/43 196/114/43
f 190/120/43 189/23/43 194/25/43 195/115/43
f 162/121/42 184/122/42 193/117/42 164/116/42
f 184/122/42 185/123/42 192/118/42 193/117/42
f 185/123/42 186/124/42 191/119/42 192/118/42
f 186/124/42 187/125/42 190/120/42 191/119/42
f 187/125/42 188/21/42 189/23/42 190/120/42
f 265/21/42 240/17/42 242/22/42 266/23/42
f 266/23/43 242/22/43 244/24/43 271/25/43
f 271/25/44 244/24/44 246/26/44 276/27/44
f 276/27/45 246/26/45 248/28/45 281/29/45
f 281/29/46 248/28/46 250/30/46 286/31/46
f 286/31/20 250/30/20 252/32/20 291/33/20
f 291/33/47 252/32/47 254/34/47 296/35/47
f 296/35/48 254/34/48 256/36/48 301/37/48
f 301/37/49 256/36/49 258/38/49 306/39/49
f 242/40/24 240/41/24 260/42/24 258/43/24 256/44/24 254/45/24 252/46/24 250/47/24 248/48/24 246/49/24 244/50/24
f 306/39/50 258/38/50 260/51/50 311/52/50
f 311/52/51 260/51/51 240/53/51 265/54/51
f 239/55/18 241/56/18 243/57/18 245/58/18 247/59/18 249/60/18 251/61/18 253/62/18 255/63/18 257/64/18 259/65/18
f 259/66/51 315/67/51 261/68/51 239/69/51
f 315/67/51 314/70/51 262/71/51 261/68/51
f 314/70/51 313/72/51 263/73/51 262/71/51
f 313/72/51 312/74/51 264/75/51 263/73/51
f 312/74/51 311/52/51 265/54/51 264/75/51
f 257/76/50 310/77/50 315/67/50 259/66/50
f 310/77/50 309/78/50 314/70/50 315/67/50
f 309/78/50 308/79/50 313/72/50 314/70/50
f 308/79/50 307/80/50 312/74/50 313/72/50
f 307/80/50 306/39/50 311/52/50 312/74/50
f 255/81/49 305/82/49 310/77/49 257/76/49
f 305/82/49 304/83/49 309/78/49 310/77/49
f 304/83/49 303/84/49 308/79/49 309/78/49
f 303/84/49 302/85/49 307/80/49 308/79/49
f 302/85/49 301/37/49 306/39/49 307/80/49
f 253/86/48 300/87/48 305/82/48 255/81/48
f 300/87/48 299/88/48 304/83/48 305/82/48
f 299/88/48 298/89/48 303/84/48 304/83/48
f 298/89/48 297/90/48 302/85/48 303/84/48
f 297/90/48 296/35/48 301/37/48 302/85/48
f 251/91/47 295/92/47 300/87/47 253/86/47
f 295/92/47 294/93/47 299/88/47 300/87/47
f 294/93/47 293/94/47 298/89/47 299/88/47
f 293/94/47 292/95/47 297/90/47 298/89/47
f 292/95/47 291/33/47 296/35/47 297/90/47
f 249/96/20 290/97/20 295/92/20 251/91/20
f 290/97/20 289/98/20 294/93/20 295/92/20
f 289/98/20 288/99/20 293/94/20 294/93/20
f 288/99/20 287/100/20 292/95/20 293/94/20
f 287/100/20 286/31/20 291/33/20 292/95/20
f 247/101/46 285/102/46 290/97/46 249/96/46
f 285/102/46 284/103/46 289/98/46 290/97/46
f 284/103/46 283/104/46 288/99/46 289/98/46
f 283/104/46 282/105/46 287/100/46 288/99/46
f 282/105/46 281/29/46 286/31/46 287/100/46
f 245/106/45 280/107/45 285/102/45 247/101/45
f 280/107/45 279/108/45 284/103/45 285/102/45
f 279/108/45 278/109/45 283/104/45 284/103/45
f 278/109/45 277/110/45 282/105/45 283/104/45
f 277/110/45 276/27/45 281/29/45 282/105/45
f 243/111/44 275/112/44 280/107/44 245/106/44
f 275/112/44 274/113/44 279/108/44 280/107/44
f 274/113/44 273/114/44 278/109/44 279/108/44
f 273/114/44 272/115/44 277/110/44 278/109/44
f 272/115/44 271/25/44 276/27/44 277/110/44
f 241/116/43 270/117/43 275/112/43 243/111/43
f 270/117/43 269/118/43 274/113/43 275/112/43
f 269/118/43 268/119/43 273/114/43 274/113/43
f 268/119/43 267/120/43 272/115/43 273/114/43
f 267/120/43 266/23/43 271/25/43 272/115/43
f 239/121/42 261/122/42 270/117/42 241/116/42
f 261/122/42 262/123/42 269/118/42 270/117/42
f 262/123/42 263/124/42 268/119/42 269/118/42
f 263/124/42 264/125/42 267/120/42 268/119/42
f 264/125/42 265/21/42 266/23/42 267/120/42
f 342/21/42 317/17/42 319/22/42 343/23/42
f 343/23/43 319/22/43 321/24/43 348/25/43
f 348/25/44 321/24/44 323/26/44 353/27/44
f 353/27/45 323/26/45 325/28/45 358/29/45
f 358/29/46 325/28/46 327/30/46 363/31/46
f 363/31/20 327/30/20 329/32/20 368/33/20
f 368/33/47 329/32/47 331/34/47 373/35/47
f 373/35/48 331/34/48 333/36/48 378/37/48
f 378/37/49 333/36/49 335/38/49 383/39/49
f 319/40/24 317/41/24 337/42/24 335/43/24 333/44/24 331/45/24 329/46/24 327/47/24 325/48/24 323/49/24 321/50/24
f 383/39/50 335/38/50 337/51/50 388/52/50
f 388/52/51 337/51/51 317/53/51 342/54/51
f 316/55/18 318/56/18 320/57/18 322/58/18 324/59/18 326/60/18 328/61/18 330/62/18 332/63/18 334/64/18 336/65/18
f 336/66/51 392/67/51 338/68/51 316/69/51
f 392/67/51 391/70/51 339/71/51 338/68/51
f 391/70/51 390/72/51 340/73/51 339/71/51
f 390/72/51 389/74/51 341/75/51 340/73/51
f 389/74/51 388/52/51 342/54/51 341/75/51
f 334/76/50 387/77/50 392/67/50 336/66/50
f 387/77/50 386/78/50 391/70/50 392/67/50
f 386/78/50 385/79/50 390/72/50 391/70/50
f 385/79/50 384/80/50 389/74/50 390/72/50
f 384/80/50 383/39/50 388/52/50 389/74/50
f 332/81/49 382/82/49 387/77/49 334/76/49
f 382/82/49 381/83/49 386/78/49 387/77/49
f 381/83/49 380/84/49 385/79/49 386/78/49
f 380/84/49 379/85/49 384/80/49 385/79/49
f 379/85/49 378/37/49 383/39/49 384/80/49
f 330/86/48 377/87/48 382/82/48 332/81/48
f 377/87/48 376/88/48 381/83/48 382/82/48
f 376/88/48 375/89/48 380/84/48 381/83/48
f 375/89/48 374/90/48 379/85/48 380/84/48
f 374/90/48 373/35/48 378/37/48 379/85/48
f 328/91/47 372/92/47 377/87/47 330/86/47
f 372/92/47 371/93/47 376/88/47 377/87/47
f 371/93/47 370/94/47 375/89/47 376/88/47
f 370/94/47 369/95/47 374/90/47 375/89/47
f 369/95/47 368/33/47 373/35/47 374/90/47
f 326/96/20 367/97/20 372/92/20 328/91/20
f 367/97/20 366/98/20 371/93/20 372/92/20
f 366/98/20 365/99/20 370/94/20 371/93/20
f 365/99/20 364/100/20 369/95/20 370/94/20
f 364/100/20 363/31/20 368/33/20 369/95/20
f 324/101/46 362/102/46 367/97/46 326/96/46
f 362/102/46 361/103/46 366/98/46 367/97/46
f 361/103/46 360/104/46 365/99/46 366/98/46
f 360/104/46 359/105/46 364/100/46 365/99/46
f 359/105/46 358/29/46 363/31/46 364/100/46
f 322/106/45 357/107/45 362/102/45 324/101/45
f 357/107/45 356/108/45 361/103/45 362/102/45
f 356/108/45 355/109/45 360/104/45 361/103/45
f 355/109/45 354/110/45 359/105/45 360/104/45
f 354/110/45 353/27/45 358/29/45 359/105/45
f 320/111/44 352/112/44 357/107/44 322/106/44
f 352/112/44 351/113/44 356/108/44 357/107/44
f 351/113/44 350/114/44 355/109/44 356/108/44
f 350/114/44 349/115/44 354/110/44 355/109/44
f 349/115/44 348/25/44 353/27/44 354/110/44
f 318/116/43 347/117/43 352/112/43 320/111/43
f 347/117/43 346/118/43 351/113/43 352/112/43
f 346/118/43 345/119/43 350/114/43 351/113/43
f 345/119/43 344/120/43 349/115/43 350/114/43
f 344/120/43 343/23/43 348/25/43 349/115/43
f 316/121/42 338/122/42 347/117/42 318/116/42
f 338/122/42 339/123/42 346/118/42 347/117/42
f 339/123/42 340/124/42 345/119/42 346/118/42
f 340/124/42 341/125/42 344/120/42 345/119/42
f 341/125/42 342/21/42 343/23/42 344/120/42
f 419/21/42 394/17/42 396/22/42 420/23/42
f 420/23/43 396/22/43 398/24/43 425/25/43
f 425/25/44 398/24/44 400/26/44 430/27/44
f 430/27/45 400/26/45 402/28/45 435/29/45
f 435/29/46 402/28/46 404/30/46 440/31/46
f 440/31/20 404/30/20 406/32/20 445/33/20
f 445/33/47 406/32/47 408/34/47 450/35/47
f 450/35/48 408/34/48 410/36/48 455/37/48
f 455/37/49 410/36/49 412/38/49 460/39/49
f 396/40/24 394/41/24 414/42/24 412/43/24 410/44/24 408/45/24 406/46/24 404/47/24 402/48/24 400/49/24 398/50/24
f 460/39/50 412/38/50 414/51/50 465/52/50
f 465/52/51 414/51/51 394/53/51 419/54/51
f 393/55/18 395/56/18 397/57/18 399/58/18 401/59/18 403/60/18 405/61/18 407/62/18 409/63/18 411/64/18 413/65/18
f 413/66/51 469/67/51 415/68/51 393/69/51
f 469/67/51 468/70/51 416/71/51 415/68/51
f 468/70/51 467/72/51 417/73/51 416/71/51
f 467/72/51 466/74/51 418/75/51 417/73/51
f 466/74/51 465/52/51 419/54/51 418/75/51
f 411/76/50 464/77/50 469/67/50 413/66/50
f 464/77/50 463/78/50 468/70/50 469/67/50
f 463/78/50 462/79/50 467/72/50 468/70/50
f 462/79/50 461/80/50 466/74/50 467/72/50
f 461/80/50 460/39/50 465/52/50 466/74/50
f 409/81/49 459/82/49 464/77/49 411/76/49
f 459/82/49 458/83/49 463/78/49 464/77/49
f 458/83/49 457/84/49 462/79/49 463/78/49
f 457/84/49 456/85/49 461/80/49 462/79/49
f 456/85/49 455/37/49 460/39/49 461/80/49
f 407/86/48 454/87/48 459/82/48 409/81/48
f 454/87/48 453/88/48 458/83/48 459/82/48
f 453/88/48 452/89/48 457/84/48 458/83/48
f 452/89/48 451/90/48 456/85/48 457/84/48
f 451/90/48 450/35/48 455/37/48 456/85/48
f 405/91/47 449/92/47 454/87/47 407/86/47
f 449/92/47 448/93/47 453/88/47 454/87/47
f 448/93/47 447/94/47 452/89/47 453/88/47
f 447/94/47 446/95/47 451/90/47 452/89/47
f 446/95/47 445/33/47 450/35/47 451/90/47
f 403/96/20 444/97/20 449/92/20 405/91/20
f 444/97/20 443/98/20 448/93/20 449/92/20
f 443/98/20 442/99/20 447/94/20 448/93/20
f 442/99/20 441/100/20 446/95/20 447/94/20
f 441/100/20 440/31/20 445/33/20 446/95/20
f 401/101/46 439/102/46 444/97/46 403/96/46
f 439/102/46 438/103/46 443/98/46 444/97/46
f 438/103/46 437/104/46 442/99/46 443/98/46
f 437/104/46 436/105/46 441/100/46 442/99/46
f 436/105/46 435/29/46 440/31/46 441/100/46
f 399/106/45 434/107/45 439/102/45 401/101/45
f 434/107/45 433/108/45 438/103/45 439/102/45
f 433/108/45 432/109/45 437/104/45 438/103/45
f 432/109/45 431/110/45 436/105/45 437/104/45
f 431/110/45 430/27/45 435/29/45 436/105/45
f 397/111/44 429/112/44 434/107/44 399/106/44
f 429/112/44 428/113/44 433/108/44 434/107/44
f 428/113/44 427/114/44 432/109/44 433/108/44
f 427/114/44 426/115/44 431/110/44 432/109/44
f 426/115/44 425/25/44 430/27/44 431/110/44
f 395/116/43 424/117/43 429/112/43 397/111/43
f 424/117/43 423/118/43 428/113/43 429/112/43
f 423/118/43 422/119/43 427/114/43 428/113/43
f 422/119/43 421/120/43 426/115/43 427/114/43
f 421/120/43 420/23/43 425/25/43 426/115/43
f 393/121/42 415/122/42 424/117/42 395/116/42
f 415/122/42 416/123/42 423/118/42 424/117/42
f 416/123/42 417/124/42 422/119/42 423/118/42
f 417/124/42 418/125/42 421/120/42 422/119/42
f 418/125/42 419/21/42 420/23/42 421/120/42
